<?xml version="1.0" encoding="utf-8"?>
<!-- Generator: Adobe Illustrator 24.0.0, SVG Export Plug-In . SVG Version: 6.00 Build 0)  -->
<svg version="1.1" id="OBJECTS" xmlns="http://www.w3.org/2000/svg" xmlns:xlink="http://www.w3.org/1999/xlink" x="0px" y="0px"
	 viewBox="0 0 492.7 325.5" style="enable-background:new 0 0 492.7 325.5;" xml:space="preserve">
<style type="text/css">
	.st0{fill:#ADBEC4;}
	.st1{fill:#0E3944;}
	.st2{fill:#EF6E4B;}
	.st3{fill:#FF8B66;}
	.st4{fill:#164353;}
	.st5{fill:#CFD8DC;}
	.st6{fill:#DB614D;}
	.st7{fill:#1A4850;}
	.st8{fill:#6097B2;}
	.st9{fill:#205260;}
	.st10{fill:#8B383E;}
	.st11{fill:#662C33;}
	.st12{fill:#CE364C;}
	.st13{fill:#F24052;}
	.st14{fill:#A02E44;}
	.st15{fill:#FFB878;}
	.st16{fill:#0C476B;}
	.st17{fill:#105E99;}
	.st18{fill:#225866;}
	.st19{fill:#8BBDDB;}
	.st20{fill:#3E6575;}
</style>
<g>
	<path class="st0" d="M107.1,325.5H52c-1,0-1.8-0.8-1.8-1.8v-1c0-1,0.8-1.8,1.8-1.8h55.1c1,0,1.8,0.8,1.8,1.8v1
		C108.9,324.7,108.1,325.5,107.1,325.5z"/>
	<path class="st0" d="M456.3,325.5h-15.1c-1,0-1.8-0.8-1.8-1.8v-1c0-1,0.8-1.8,1.8-1.8h15.1c1,0,1.8,0.8,1.8,1.8v1
		C458.1,324.7,457.3,325.5,456.3,325.5z"/>
	<path class="st0" d="M210.8,325.5h-55.1c-1,0-1.8-0.8-1.8-1.8v-1c0-1,0.8-1.8,1.8-1.8h55.1c1,0,1.8,0.8,1.8,1.8v1
		C212.6,324.7,211.8,325.5,210.8,325.5z"/>
	<path class="st0" d="M291.7,325.5h-55.1c-1,0-1.8-0.8-1.8-1.8v-1c0-1,0.8-1.8,1.8-1.8h55.1c1,0,1.8,0.8,1.8,1.8v1
		C293.5,324.7,292.7,325.5,291.7,325.5z"/>
	<path class="st0" d="M390.8,325.5h-75.1c-1,0-1.8-0.8-1.8-1.8v-1c0-1,0.8-1.8,1.8-1.8h75.1c1,0,1.8,0.8,1.8,1.8v1
		C392.6,324.7,391.8,325.5,390.8,325.5z"/>
</g>
<g>
	<path class="st1" d="M125.6,75.2c0,0-5.8-4-14.3-0.9c-8.5,3-10.4,14.5-8.3,23.8c2.1,9.3-9.6,41.1-9.6,41.1s6.1,8.6,27.4,5.3
		c0,0,15.9-28.8,14.7-49.6S125.6,75.2,125.6,75.2z"/>
	<path class="st2" d="M132.3,111c8-2.6,12.9,4.1,17.5,16.5c4.6,12.4,6.1,13.6,6.1,13.6l17.7,11.4l-1.5,6.6c0,0-16.8-6.6-20.9-10.8
		c-4.1-4.2-15.8-25.4-15.8-25.4L132.3,111z"/>
	<path class="st3" d="M93.3,191.1c0,0-3.5,17.6-2.9,44c0,0-13.7,20.2-2.4,77.7H94c0,0,4.8-49,8.5-62.2c3.7-13.3,17.4-17.3,18.1-57.7
		L93.3,191.1z"/>
	<path class="st3" d="M66.3,242.8c-3.4-11.3-12.3-30.3-35-56.1c0,0-1.4-0.7-3.2,0.4c-1.9,1.2-1.9,2.6-1.9,2.6s11.4,24.8,18.6,43
		c2.4,6.1,8.3,10.1,14.9,10.1H66.3z"/>
	<path class="st4" d="M107.6,264.7c0,0,0.1,8.5-5.5,8.6c-7.8,0.2-8.1-8.3-17-8c-8.9,0.3-27.2,2.5-33-11.4c-3-7.2,1.1-16.4-8.6-23.3
		c-9.7-6.9-5-14.7,0-18.9c5-4.2-2.2-8.7,3.1-10.8c1.2-0.5,2.5-0.4,3.6-0.1c0.7,0.2,1.3,0.6,1.9,1c2.8,1.8,4.7,5,4.7,5
		c14.7-40.3,40.9-45.6,40.9-45.6l25.9,8.9C124.1,232.8,107.6,264.7,107.6,264.7z"/>
	<path class="st5" d="M132.3,111c0,0-6,2-14.6,0.7c-8.6-1.3-11.4-6.7-17.4-3.2c-9.1,5.2-4.8,23.2-2.5,32.5
		c0.8,3.5,1.9,12.6-0.1,20.2c0,0,12.1,9.4,25.9,8.9l7.5-16.4C131,153.7,147.4,134.1,132.3,111z"/>
	<path class="st2" d="M117,95.9c0,0,1,8.5-2.1,16.2c0,0,4.5,6.6,8.8,2.3c0,0,0.4-7.8,5.2-16.6C132,91.9,117,95.9,117,95.9z"/>
	<g>
		<path class="st3" d="M110.1,96.2c0,0-3.8-2.4-3.4,1.3c0.5,4.3,4.7,5.1,5.1,3.6C112.3,99.7,110.1,96.2,110.1,96.2z"/>
		<path class="st3" d="M131.8,91.6c0,0,2.4-3.8,3.6-0.3c1.4,4.1-2,6.6-3.1,5.5C131.3,95.6,131.8,91.6,131.8,91.6z"/>
		<path class="st3" d="M124,109c-6.9,1.5-11.7-2.1-14.7-15.5c-1.6-6.9,1-12,8.7-13.7c7.7-1.7,11.9,1.8,13.4,8.7
			C134.6,103,131.1,107.4,124,109z"/>
		<path class="st6" d="M130.2,93.8c0.3,0.7-0.2,1.5-1,1.8c-0.8,0.3-1.7,0.1-2-0.6c-0.3-0.7,0.2-1.5,1-1.8
			C129,92.9,129.9,93.2,130.2,93.8z"/>
		<path class="st6" d="M116.2,97.4c0.1,0.7-0.5,1.4-1.4,1.5c-0.9,0.1-1.7-0.3-1.8-1c-0.1-0.7,0.5-1.4,1.4-1.5
			C115.2,96.2,116.1,96.7,116.2,97.4z"/>
		<g>
			<path class="st1" d="M125.4,87.6c-0.1,0-0.1,0-0.2-0.1c-1.2-0.8-2.8-0.4-2.9-0.4c-0.2,0.1-0.4-0.1-0.4-0.3c0-0.2,0.1-0.4,0.3-0.4
				c0.1,0,2-0.5,3.4,0.5c0.2,0.1,0.2,0.3,0.1,0.5C125.6,87.5,125.5,87.6,125.4,87.6z"/>
		</g>
		<g>
			<path class="st1" d="M112.5,90.5c-0.1,0-0.1,0-0.2-0.1c-0.2-0.1-0.2-0.3-0.1-0.5c0.9-1.5,2.8-1.9,2.9-1.9c0.2,0,0.4,0.1,0.4,0.3
				c0,0.2-0.1,0.4-0.3,0.4c0,0-1.7,0.3-2.4,1.5C112.7,90.4,112.6,90.5,112.5,90.5z"/>
		</g>
		<path class="st7" d="M125.7,91.4c0.2,0.9,0,1.6-0.5,1.7c-0.5,0.1-1-0.5-1.2-1.4c-0.2-0.9,0-1.6,0.5-1.7
			C125,89.9,125.5,90.5,125.7,91.4z"/>
		<path class="st7" d="M116.2,93.4c0.2,0.9,0,1.6-0.5,1.7c-0.5,0.1-1-0.5-1.2-1.4c-0.2-0.9,0-1.6,0.5-1.7
			C115.5,91.9,116,92.5,116.2,93.4z"/>
		<path class="st7" d="M119.3,101.5c0,0,4.4-0.4,6.3-2c0,0-0.5,3.4-2.9,3.7C120.3,103.4,119.3,101.5,119.3,101.5z"/>
		<path class="st7" d="M123.3,91.4c0,0,0.2-2.2,1-2.3c0.9,0,1.9,1.6,1.9,1.6l1.1-0.9l-1.2,0.4c0,0-1.1-1.7-1.9-1.6
			C123.1,89,123.3,91.4,123.3,91.4z"/>
		<path class="st7" d="M116.7,93.2c0,0-1.1-2-1.9-1.6c-0.8,0.3-1,2.3-1,2.3l-1.4-0.4l1.3-0.1c0,0,0.2-2,1-2.2
			C115.9,90.9,116.7,93.2,116.7,93.2z"/>
		<g>
			<path class="st6" d="M121.5,97.5l-0.4-0.7c0.6-0.3,0.6-0.7,0.6-1c-0.1-0.4-0.4-0.7-0.7-0.7c-0.1,0-0.3,0.1-0.3,0.4l-0.7-0.3
				c0.3-0.8,0.9-0.9,1.1-0.8c0.6,0,1.2,0.6,1.3,1.3C122.6,96.4,122.2,97.1,121.5,97.5z"/>
		</g>
		<path class="st1" d="M110.7,98.7c0,0-2.1-7.8-0.9-13.3c0,0,6-8.3,17.5-4.2c0,0,3.4,5.5,5.1,13.2c0,0,0.4-2.8-0.7-8.9
			c-1.1-6.2-6.6-10-14.1-8.8C110.1,77.9,102.1,85.4,110.7,98.7z"/>
	</g>
	<path class="st1" d="M122.7,79.4c0,0,0.5,2-1.5,7.3c0,0-1.4-1.5-3.1,0c-1.7,1.5-5,1-6.2,1.8c-1.2,0.8-1.2,2.6-1.2,2.6s-1-2.3,0-5
		c0,0-2.2,2.9-1.9,6.4c0,0-3-0.5-2.9-5.5c0.1-5,7.3-13.2,15.3-12.6s9.9,13.2,9.9,13.2s-0.7-0.6-1.9-0.3c0,0-0.2-2.7-2-6.1
		c0,0,0.8,2.4,0,5.1c0,0-2.2-1.2-4-0.8C123.3,85.4,124.4,83.3,122.7,79.4z"/>
	<path class="st3" d="M98.2,110.1c3.9-3.1,6.9,0.8,7.7,6.2c0.7,5.4-6.3,37.3-11.8,36.2c-2.1-0.5-3-8.8-3-8.8s2.1-9,3.5-22.5
		C95.3,115,96.2,111.7,98.2,110.1z"/>
	<path class="st3" d="M86.9,148c-5.3-5-14.7-21.6-17.1-30.1l4-1.6c0,0,12,17.2,17.5,21.5c5.5,4.3,7.4,9.2,5,13.3
		C93.8,155.2,88,149.1,86.9,148z"/>
	<g>
		<path class="st3" d="M71.5,106.9c-0.3,5.4,4.2,6.7,2.2,10.9c-0.4,0.9-1,1.3-1.7,1.5c-1.2,0.4-2.6,0-3.5-0.9
			c-2.1-2.1-5.4-4.4-7.1-5.4c-2-1.1-0.9-1.4-0.9-1.4c-0.2-0.1-0.4-0.2-0.6-0.2c-1.4-0.6-2.5-0.8-1.5-1.4c1.1-0.7,5.2,0.8,5.2,0.8
			c-5.3-3.5-6.7-2.7-5.8-3.4c1.3-1,6.3,1.3,6.5,1.4c-2.8-2.6-4.8-3.2-3.7-3.6c1.1-0.4,6.7,3.6,8.7,5.1c0.5,0.3,0.7,0.6,0.7,0.6
			C70.1,106.2,71.5,106.9,71.5,106.9z"/>
		<path class="st2" d="M69.4,110.1c0.5,0.3,0.7,0.6,0.7,0.6s-0.9,1.6,0.3,3.7C70.4,114.3,68.2,112.9,69.4,110.1z"/>
		<path class="st2" d="M64.8,113.2c-0.5-0.3-3.1-1.8-4.2-1.7c-0.2-0.1-0.4-0.2-0.6-0.2C60.7,110.4,64.2,112.9,64.8,113.2z"/>
	</g>
	<g>
		<path class="st8" d="M85.7,193.8c0,0.6-0.5,1.1-1.1,1.1c-0.6,0-1.1-0.5-1.1-1.1c0-0.6,0.5-1.1,1.1-1.1
			C85.2,192.8,85.7,193.2,85.7,193.8z"/>
		<path class="st8" d="M104.8,201.2c0,0.6-0.5,1.1-1.1,1.1s-1.1-0.5-1.1-1.1s0.5-1.1,1.1-1.1S104.8,200.6,104.8,201.2z"/>
		<path class="st8" d="M121,205.1c0,0.6-0.5,1.1-1.1,1.1s-1.1-0.5-1.1-1.1c0-0.6,0.5-1.1,1.1-1.1S121,204.5,121,205.1z"/>
		<path class="st8" d="M96.1,179.9c0,0.6-0.5,1.1-1.1,1.1s-1.1-0.5-1.1-1.1c0-0.6,0.5-1.1,1.1-1.1S96.1,179.3,96.1,179.9z"/>
		<circle class="st8" cx="98.6" cy="190" r="1.1"/>
		<path class="st8" d="M116.5,195.8c0,0.6-0.5,1.1-1.1,1.1s-1.1-0.5-1.1-1.1c0-0.6,0.5-1.1,1.1-1.1S116.5,195.2,116.5,195.8z"/>
		<path class="st8" d="M118.9,178.3c0,0.6-0.5,1.1-1.1,1.1s-1.1-0.5-1.1-1.1c0-0.6,0.5-1.1,1.1-1.1S118.9,177.7,118.9,178.3z"/>
		<circle class="st8" cx="106.7" cy="174.7" r="1.1"/>
		<path class="st8" d="M76.3,214.6c0,0.6-0.5,1.1-1.1,1.1s-1.1-0.5-1.1-1.1c0-0.6,0.5-1.1,1.1-1.1S76.3,214.1,76.3,214.6z"/>
		<path class="st8" d="M61.1,210.1c0,0.6-0.5,1.1-1.1,1.1c-0.6,0-1.1-0.5-1.1-1.1c0-0.6,0.5-1.1,1.1-1.1
			C60.6,209,61.1,209.5,61.1,210.1z"/>
		<path class="st8" d="M52,201.8c-0.2,0.3-0.5,0.5-0.9,0.5c-0.6,0-1.1-0.5-1.1-1.1c0-0.1,0-0.3,0.1-0.4
			C50.8,201,51.4,201.4,52,201.8z"/>
		<circle class="st8" cx="80.7" cy="228.6" r="1.1"/>
		<path class="st8" d="M54.4,243.7c0,0.6-0.5,1.1-1.1,1.1c-0.6,0-1.1-0.5-1.1-1.1c0-0.6,0.5-1.1,1.1-1.1
			C54,242.6,54.4,243.1,54.4,243.7z"/>
		<circle class="st8" cx="64.5" cy="234.5" r="1.1"/>
		<circle class="st8" cx="47.9" cy="226.4" r="1.1"/>
		<path class="st8" d="M62.4,258.4c0,0.6-0.5,1.1-1.1,1.1c-0.6,0-1.1-0.5-1.1-1.1c0-0.6,0.5-1.1,1.1-1.1
			C61.9,257.3,62.4,257.8,62.4,258.4z"/>
		<path class="st8" d="M72.5,202.2c0,0.6-0.5,1.1-1.1,1.1s-1.1-0.5-1.1-1.1c0-0.6,0.5-1.1,1.1-1.1S72.5,201.6,72.5,202.2z"/>
		<path class="st8" d="M82.8,184.3c0,0.6-0.5,1.1-1.1,1.1s-1.1-0.5-1.1-1.1c0-0.6,0.5-1.1,1.1-1.1S82.8,183.7,82.8,184.3z"/>
		<path class="st8" d="M94.4,169.3c0,0.6-0.5,1.1-1.1,1.1s-1.1-0.5-1.1-1.1c0-0.6,0.5-1.1,1.1-1.1S94.4,168.7,94.4,169.3z"/>
		<path class="st8" d="M70.9,191.1c0,0.6-0.5,1.1-1.1,1.1s-1.1-0.5-1.1-1.1c0-0.6,0.5-1.1,1.1-1.1S70.9,190.5,70.9,191.1z"/>
		<path class="st8" d="M83.9,173.6c0,0.6-0.5,1.1-1.1,1.1s-1.1-0.5-1.1-1.1c0-0.6,0.5-1.1,1.1-1.1S83.9,173,83.9,173.6z"/>
		<path class="st8" d="M63.4,221.7c0,0.6-0.5,1.1-1.1,1.1c-0.6,0-1.1-0.5-1.1-1.1c0-0.6,0.5-1.1,1.1-1.1
			C63,220.6,63.4,221.1,63.4,221.7z"/>
		<path class="st8" d="M50,212.2c0,0.6-0.5,1.1-1.1,1.1c-0.6,0-1.1-0.5-1.1-1.1c0-0.6,0.5-1.1,1.1-1.1C49.6,211.2,50,211.7,50,212.2
			z"/>
		<circle class="st8" cx="87.9" cy="209" r="1.1"/>
		<circle class="st8" cx="109.9" cy="214.6" r="1.1"/>
		<path class="st8" d="M109.9,184.3c0,0.6-0.5,1.1-1.1,1.1s-1.1-0.5-1.1-1.1c0-0.6,0.5-1.1,1.1-1.1S109.9,183.7,109.9,184.3z"/>
		<path class="st8" d="M122.8,186.5c0,0.6-0.5,1.1-1.1,1.1s-1.1-0.5-1.1-1.1c0-0.6,0.5-1.1,1.1-1.1S122.8,185.9,122.8,186.5z"/>
		<path class="st8" d="M97.1,222.7c0,0.6-0.5,1.1-1.1,1.1s-1.1-0.5-1.1-1.1c0-0.6,0.5-1.1,1.1-1.1S97.1,222.1,97.1,222.7z"/>
		<circle class="st8" cx="86.8" cy="241.7" r="1.1"/>
		<circle class="st8" cx="70.4" cy="244.8" r="1.1"/>
		<circle class="st8" cx="115.5" cy="228.6" r="1.1"/>
		<path class="st8" d="M101.8,236.7c0,0.6-0.5,1.1-1.1,1.1s-1.1-0.5-1.1-1.1c0-0.6,0.5-1.1,1.1-1.1S101.8,236.1,101.8,236.7z"/>
		<path class="st8" d="M79.6,260.5c0,0.6-0.5,1.1-1.1,1.1s-1.1-0.5-1.1-1.1c0-0.6,0.5-1.1,1.1-1.1S79.6,259.9,79.6,260.5z"/>
		<circle class="st8" cx="95" cy="254.9" r="1.1"/>
		<circle class="st8" cx="110.9" cy="248.6" r="1.1"/>
		<path class="st8" d="M104.8,267c0,0.6-0.5,1.1-1.1,1.1s-1.1-0.5-1.1-1.1c0-0.6,0.5-1.1,1.1-1.1S104.8,266.4,104.8,267z"/>
	</g>
	<g>
		<path class="st4" d="M103.6,323.2H86.1c-1.1-3.3,1-6.5,0.6-9.4c-0.6-4.9,2.2-2.2,2.2-2.2c0.5-5.2,7.8-6.2,7.8-3.9
			c-0.1,3.4,0.5,5.6,1.5,7c2,2.9,5.2,2.8,5.8,4.9c0.1,0.2,0.1,0.4,0.1,0.6C104.6,322.7,103.6,323.2,103.6,323.2z"/>
		<path class="st9" d="M104.1,320.2c-3.6,0.8-12-0.3-12.3-2.4c-0.3-2,4.2-3,6.4-3.1c2,2.9,5.2,2.8,5.8,4.9
			C104,319.8,104.1,320,104.1,320.2z"/>
	</g>
	<g>
		<path class="st4" d="M31.5,187.4c-1.9-1.7-4.9,1.1-4.9,1.1s1.6,2.4,0.6,3.4c-1.1,1-2.3-1.3-4.4-0.3c-0.2,0.1-0.3,0.2-0.5,0.3
			c-1.6,1-3.3,3-4.7,4.5c-0.3,0.3-0.5,0.6-0.8,0.9c-1.6,1.7-5.7,2.6-6.5-1.8c-0.8-4.4,4.2-9.6,9.7-14.4s9-1.9,9-1.9s1.2,2,1.2,3.3
			c0,1.2,1.1,1.9,1.7,3.1C32.8,186.7,31.5,187.4,31.5,187.4z"/>
		<path class="st9" d="M22.3,191.9c-1.6,1-3.3,3-4.7,4.5c-2.1,0.5-3.9,0.3-4.2-1.6c-0.7-4.7,8.6-10.6,7.9-7.3
			C21,189.2,21.6,190.8,22.3,191.9z"/>
	</g>
</g>
<g>
	<path class="st5" d="M347,315.6c-0.9-0.5-1.7-1.5-2.4-2.7c0,0-0.6-3.7,0-7.7c0.6-3.9-1.1-7.1-6.6-8.3c-5.4-1.2-8.6,1.4-7.4,12.3
		c0,0,0,0,0,0c-0.8,4.5-1,9.7,0.9,14h16.6C348.1,323.2,350.7,317.6,347,315.6z"/>
	<path class="st3" d="M361.6,257.2c0,0,0,10.8-6.1,21.9c-6.2,11.3-13.9,26.8-13.9,26.8s-5.1,5-8.4-3.3c0,0,2.3-28.8,7.6-39.4
		C346,252.7,361.6,257.2,361.6,257.2z"/>
	<path class="st3" d="M441.2,221.9c0,0,9.9,41.6,16.2,52.6c0,0-1.4,4.6-8.3,6c0,0-21.5-31.6-22.9-45
		C424.8,222.2,441.2,221.9,441.2,221.9z"/>
	<g>
		<path class="st10" d="M446,231.7c-2.6,6.3-23,6.7-23,6.7l-1.6-2.3l-0.4-0.6l-3.2-4.7c0,0-33.7-33-40.2-30.3h0
			c-0.2,0.1-0.4,0.2-0.6,0.3c-4.5,3.2-4.9,20.9-10.3,50.5c-0.5,2.8-1.6,6.1-2.5,8.3c-0.1,0.2-0.2,0.5-0.3,0.7
			c-0.5,1.3-0.8,2.1-0.8,2.1c-20.6,8.3-27.3-8.1-27.3-8.1s0.2-0.5,0.6-1.2c0.1-0.2,0.2-0.4,0.3-0.6c1.1-2.4,2.8-6.5,2.8-8.7
			c0-2.4,0-4.7-0.1-6.9c0-0.2,0-0.4,0-0.6c0-7.1,0-13.3,0-18.7v-0.6c0-2.3,0.1-4.5,0.1-6.6V210c0.2-9.4,0.5-15.6,0.8-19.8
			c0-0.2,0-0.4,0-0.6c0.6-7,1.2-7.7,1.2-7.7l-4.1-28.6h44.9c0,0,6.8,6.8,15.5,15.7c0.2,0.2,0.4,0.4,0.5,0.5c3.2,3.2,6.6,6.7,10,10.3
			c0.1,0.1,0.3,0.3,0.4,0.4c1.4,1.4,2.7,2.8,4.1,4.2c0.2,0.2,0.3,0.3,0.5,0.5c4.5,4.7,8.9,9.3,12.6,13.3c0.1,0.1,0.3,0.3,0.4,0.4
			c5.1,5.5,9,10,10.4,12c3.6,5.5,6.3,12.5,7.9,16.9c0,0,0,0,0,0c0.1,0.2,0.1,0.4,0.2,0.6C445.6,230.3,446,231.7,446,231.7z"/>
		<g>
			<path class="st11" d="M348.3,186.2c-1.8,2.2-4.5,3.5-7.9,4c0-0.2,0-0.4,0-0.6c3.2-0.5,5.8-1.7,7.5-3.8c3.1-3.6,2.6-8.6,2.6-8.6
				l0.6-0.1C351,177.4,351.5,182.4,348.3,186.2z"/>
			<path class="st11" d="M398.4,169.5c-0.2,0-0.3,0-0.5,0c-5,0-10.2-5.5-10.5-5.7l0.4-0.4c0.1,0.1,5.3,5.5,10.1,5.6
				C398.1,169.2,398.3,169.3,398.4,169.5z"/>
			<path class="st11" d="M364.3,259.7c-0.1,0.2-0.2,0.5-0.3,0.7c-3.3,1.2-6.4,1.7-9.2,1.7c-8.9,0-15-5.1-18.4-9
				c0.1-0.2,0.2-0.4,0.3-0.6C341,257.6,350.3,265,364.3,259.7z"/>
			<path class="st11" d="M376.4,190.2c0.7,3.2,1.2,6.7,1.2,10.3c-0.2,0.1-0.4,0.2-0.6,0.3c0-16.8-9.7-29.8-9.8-30l0.4-0.3
				c0.1,0.1,5.8,7.9,8.6,19.1c1.1-0.7,1.9-1.8,2.2-3.2c1.4-5.9-5-15.5-5-15.6l0.5-0.3c0.3,0.4,6.6,9.9,5.1,16
				C378.6,188.2,377.8,189.4,376.4,190.2z"/>
			<path class="st11" d="M426.4,198.7c-1.7,1.8-3.2,3.3-3.4,3.5l-0.3,0.3l-0.1-0.4c-2.2-5.7-16.2-18-16.3-18.2l-0.2-0.2l2.3-3.9
				c0.1,0.1,0.3,0.3,0.4,0.4l-2,3.2c2.7,0.9,4.7,1.1,6,0.9c0.2,0.2,0.3,0.3,0.5,0.5c-0.5,0.1-0.9,0.1-1.5,0.1
				c-1.3,0-2.7-0.3-4.3-0.7c3.2,2.9,13,12,15.3,17.1c0.9-0.9,2-2,3.1-3.2C426.2,198.4,426.3,198.5,426.4,198.7z"/>
			<path class="st11" d="M349.7,236.8l-0.2,0c-0.2,0.1-2.7,0.6-5.6,0.6c-1.5,0-3-0.1-4.4-0.5c0-0.2,0-0.4,0-0.6
				c3.7,1.1,8.6,0.2,9.7,0l-0.9-23.1c-0.5,1.3-1.6,3-3.5,4c-0.9,0.5-2,0.7-3.1,0.7c-0.7,0-1.4-0.1-2.1-0.2v-0.6
				c1.9,0.4,3.6,0.3,5-0.4c2.4-1.2,3.3-3.7,3.6-4.7c-1.9,0.3-5.6-0.7-8.4-1.5V210c3.1,0.9,7.2,2,8.7,1.5l0.4-0.1L349.7,236.8z"/>
			<path class="st11" d="M444.9,228.2c-3.2,3.2-9.8,8.1-20,8.1c-1.1,0-2.2-0.1-3.4-0.2l-0.4-0.6c12.4,1.4,20.1-4.4,23.6-7.8
				C444.7,227.8,444.8,228,444.9,228.2z"/>
		</g>
	</g>
	<path class="st12" d="M390.7,31.6c0,0-1.2-2.8-6.5-2.8c-4,0-5.6,2.2-5.6,2.2c-2.4,7-5,34-5.9,34.9c-0.5,0.5-30.3,20.6-30.3,20.6
		c16.2,0.3,26.3,20.3,26.3,20.3c0.5-6.6,18.8-32.5,19-34.9C388.1,67.5,395.9,47.9,390.7,31.6z"/>
	<path class="st12" d="M338.9,172.3c0,0-0.1,5.6,1.7,6c1.8,0.4,16.6,4.7,33.6-3c17-7.7,20-13.5,15-17.7
		C384.2,153.3,338.9,172.3,338.9,172.3z"/>
	<path class="st13" d="M332.1,90.3c0,0-15.5-1.8-24.4,2c0,0-2.5,11,9.7,35.6c12.2,24.6,9.4,40.1,23.1,45.9
		c12.2,5.2,48.2-10.2,49.3-15.3c2.8-12.8-19.2-35.4-20.5-48.5C368,97,355.2,77.4,332.1,90.3z"/>
	<path class="st12" d="M307.7,92.3c-10.8,3.8-23,16-23,21.9c0,5.9,10.2,8.1,10.2,8.1l16.7-8.1c0,0,4.8-3.3,1.7-13
		C310.2,91.4,307.7,92.3,307.7,92.3z"/>
	<g>
		<path class="st5" d="M352.2,103.2c-3.2,0-7.2-1.2-9.7-2.9c-1.4-1-2.2-2.1-2.4-3.2c-0.6-3.8,3.1-5.8,3.3-5.9l0.5,1
			c-0.1,0.1-3.2,1.7-2.7,4.7c0.1,0.8,0.8,1.7,1.9,2.5c2.8,2,7.6,3.2,10.8,2.6c1.4-0.2,2.3-0.8,2.8-1.5c0.5-0.9,0.1-2,0.1-2l1-0.4
			c0,0.1,0.6,1.5-0.1,2.9c-0.6,1.1-1.8,1.8-3.5,2.1C353.5,103.1,352.9,103.2,352.2,103.2z"/>
	</g>
	<g>
		<path class="st5" d="M338.5,114.9c-2.4,0-6.4-1-6.9-4.9c-0.3-2-0.1-3.7,0.1-5.1c0.2-2.2,0.4-3.9-0.8-5.9c-2.1-3.4-4.9-3.6-5-3.6
			l0.1-1.1c0.1,0,3.5,0.2,5.9,4.1c1.5,2.4,1.2,4.4,1,6.6c-0.2,1.5-0.3,3-0.1,4.9c0.6,4.2,6,4,6.2,4l0.1,1.1
			C338.8,114.9,338.6,114.9,338.5,114.9z"/>
	</g>
	<path class="st12" d="M341.8,94.9c0,0,8.2-5.6,6.2-11.6c-1.9-6-28.3-5.6-35.1,1.6c-6.8,7.2,14.7,12,14.7,12
		C329.4,93.6,340,93.2,341.8,94.9z"/>
	<path class="st14" d="M327.1,94c-3.9-1.3-6.2-4.1-5.4-7.4c0.8-3.2,17.5-3.3,20.7-0.7C345.6,88.5,341.2,98.8,327.1,94z"/>
	<path class="st2" d="M325.3,84.9c0,0,3.4,5.9,1.8,9.1c0,0,11.8,4.1,11.8-2.5c0,0-2.2-4.9-1.4-8.1L325.3,84.9z"/>
	<g>
		<path class="st15" d="M321.3,79.8c0,0-5.8-9.3-5.3-18.1c0.3-4.4,2.5-6.2,2.5-6.2s-1.8-2.6,0.1-6.5c0,0,2.7,3.2,12.3,2.2
			c9.2-1,10.2,5.6,10.2,5.6c6.6,1,2.1,21-2.5,23H321.3z"/>
		<path class="st3" d="M318.9,71.2c0,0-3.3-3.3-3.7,0.6c-0.5,4.5,3.6,6.3,4.4,4.9C320.4,75.2,318.9,71.2,318.9,71.2z"/>
		<path class="st3" d="M342.2,71.4c0,0,3.3-3.3,3.7,0.6c0.5,4.5-3.6,6.3-4.4,4.9C340.7,75.4,342.2,71.4,342.2,71.4z"/>
		<path class="st3" d="M330.2,87.5c-7.4,0-11.6-4.8-11.6-19.3c0-7.5,3.8-12,12.1-12c8.3,0,11.8,4.6,11.8,12
			C342.5,83.8,337.8,87.5,330.2,87.5z"/>
		<path class="st6" d="M340,73.4c0.1,0.7-0.5,1.5-1.4,1.6c-0.9,0.2-1.8-0.3-1.9-1.1c-0.1-0.7,0.5-1.5,1.4-1.6
			C339,72.1,339.9,72.6,340,73.4z"/>
		<path class="st6" d="M324.8,73.8c0,0.8-0.9,1.3-1.8,1.3c-0.9-0.1-1.7-0.7-1.6-1.5c0-0.8,0.9-1.3,1.8-1.3
			C324.2,72.4,324.9,73,324.8,73.8z"/>
		<g>
			<path class="st15" d="M336.8,65.6c-0.1,0-0.2,0-0.3-0.1c-1.2-0.9-2.9-0.6-3-0.6c-0.2,0-0.4-0.1-0.4-0.3c0-0.2,0.1-0.4,0.3-0.4
				c0.1,0,2.1-0.4,3.6,0.7c0.2,0.1,0.2,0.4,0.1,0.5C336.9,65.5,336.9,65.6,336.8,65.6z"/>
		</g>
		<g>
			<path class="st15" d="M322.6,65.7c-0.1,0-0.2-0.1-0.2-0.1c-0.1-0.2-0.1-0.4,0.1-0.5c1.4-1.1,3.4-0.8,3.5-0.8
				c0.2,0,0.3,0.2,0.3,0.4c0,0.2-0.2,0.3-0.4,0.3c0,0-1.8-0.3-2.9,0.7C322.8,65.6,322.7,65.7,322.6,65.7z"/>
		</g>
		<path class="st7" d="M336,69.8c0,0.9-0.4,1.7-0.9,1.7c-0.5,0-0.9-0.7-0.9-1.7c0-0.9,0.4-1.7,0.9-1.7C335.6,68.1,336,68.9,336,69.8
			z"/>
		<path class="st7" d="M326.1,69.8c0,0.9-0.4,1.7-0.9,1.7c-0.5,0-0.9-0.7-0.9-1.7c0-0.9,0.4-1.7,0.9-1.7
			C325.7,68.1,326.1,68.9,326.1,69.8z"/>
		<path class="st15" d="M320.9,57.8c0,0,7.9,2.9,19.2,2.1c0,0,2.4,3,2.1,13.6c0,0,6.6-19.1-12.7-19.1c-19.3,0-10.6,18.6-10.6,18.6
			S317.3,61.3,320.9,57.8z"/>
		<g>
			<path class="st6" d="M330.7,74.7l-0.6-0.6l1.5-1.5c-1.4-2-1.4-6.6-1.4-6.8l0.8,0c0,0,0,5,1.4,6.6l0.3,0.3L330.7,74.7z"/>
		</g>
		<path class="st7" d="M325.8,77.1c0,0,7.3,0.3,10.9-0.7c0,0,0.6,5.3-5,5.6C325.8,82.3,325.8,77.1,325.8,77.1z"/>
	</g>
	<path class="st5" d="M356.8,97.1c1.4-0.3,1.2,3.4,0,2.3C355.6,98.4,355.4,97.4,356.8,97.1z"/>
	<path class="st5" d="M340.1,114.7c-0.2,1.4-3.6,0.1-2.2-0.8C339.3,113.1,340.3,113.3,340.1,114.7z"/>
	<path class="st2" d="M325.2,122.3c0,0-2.2,5.7-2.1,8.8c0.1,3.2,1.2,2.8,1.2,2.8s-1.7,0.7-2,2.5c-0.3,1.8,4.3,3.2,4.6,3.2
		c0.3,0,3.6-1.2,3.6-1.2l0.7-10.4l-2.9-1.8L325.2,122.3z"/>
	<path class="st3" d="M327,121.6c0,0,4,2.5,5.6,4c1.6,1.5,0.7,13.3,0,13.9c-0.7,0.6-5.8,1.7-6.8,1.1c-1-0.6,0.4-4.1,0.4-4.1
		s2.6-0.6,2.2,0.4c-0.4,1,0,1.8,0,1.8l1.1-0.4c0,0-0.5-2.6,0-4.6c0.5-1.9-3.6-4-4.1-7.5C324.8,122.5,327,121.6,327,121.6z"/>
	<path class="st12" d="M285.4,115.8c-1.3-5.5,4.2-7.5,11.9-6.6c8.9,1.1,27.1,3.4,31.1,13c0,0,1.3,3.8-2.1,5.6
		C316.9,133,287.8,126.2,285.4,115.8z"/>
	<path class="st14" d="M313.2,112.1c0,0-10.6-4.4-15.9-4.8C292,106.9,304.6,111.5,313.2,112.1z"/>
	<g>
		<path class="st3" d="M392.5,16.8c-0.8,0.9-2.1,4.5-2.1,4.5c-0.6,3-0.9,4.6-1.9,6c-1,1.4-0.5,3.8-0.5,3.8s-4,2.1-7.4-0.5
			c0,0,0.4-2.4,0-3.1c-0.7-1.4-2.9-2.1-3.7-4.8c-0.8-2.7-3.1-5.8-3.1-5.8s0.7-1.4,1.9-0.6c1.2,0.9,2,3.1,2.6,3.3
			c0.1,0,0.3,0.1,0.4,0.1c0,0,0,0,0,0c0.5,0.1,1,0,1.3-0.3c0,0,0.1,0,0.1-0.1c1.1-1.3,1.4-5,1.3-6.7c-0.1-2.3,0-5.6,1.4-5
			c1.4,0.5,0.1,1.8,1.2,7l0.5,0.1c0.1,0.4,1.1-3.1,1.3-6.4c0.2-2.3,1.6-1.4,2-0.7c0.3,0.7-0.2,3-0.3,4.6c-0.1,1.1-0.2,2.2-0.2,2.9
			l0.6,0.3c2.2-3.9,1.5-5.5,2.8-5.6c1.3-0.1,0.8,3.2,0.1,4.5c-0.3,0.5-0.6,1.7-0.8,2.8c2.3-2.7,2-4,3.1-3.9
			C394.3,13.3,393.3,15.9,392.5,16.8z"/>
		<path class="st2" d="M382.6,23c-0.8-2.1-3.6-3.1-3.9-3.2c0.5,0.1,1,0,1.3-0.3C382.7,20.6,382.6,23,382.6,23z"/>
	</g>
	<g>
		<path class="st5" d="M334.4,306.9c0,0-1.5-3.1-0.2-4.5c1.4-1.3,3,1.2,5.3,0.6c2.3-0.6,2.9-2.2,3.5,0
			C343.6,305.4,342.9,312.5,334.4,306.9z"/>
		<path class="st0" d="M343.2,306.8c0,0-6.3,2.2-9.5,0l0.8,2.7c0,0,6.8,0.7,7.8-1L343.2,306.8z"/>
		<path class="st0" d="M343.1,310.2c0,0-5.8-0.8-8.5,0.6v1.3c0,0,7.5-1.8,9.9,0L343.1,310.2z"/>
		<path class="st0" d="M334.3,314.9c0,0,1.1-2.7,4.6-2.9c3.5-0.2,5.9,1.7,5.9,1.7S339.2,311.5,334.3,314.9z"/>
	</g>
	<g>
		<path class="st5" d="M482.4,277.2c-11,14.7-26.1,17.6-26.1,17.6c-4.4-3.5-4.5-7.6-4.5-7.6s-4.2-3.8-4.8-5.6
			c-0.6-1.8,3.6-7.2,6.1-6.7c1.7,0.4,2.7,1.8,3.2,2.6c-2.1-4.7-0.4-6.3,2.5-5.9c3.1,0.4,0.2,1.1,2.4,3.6c0.2,0.2,0.3,0.3,0.5,0.5
			c0.4,0.3,0.9,0.5,1.4,0.6c0.5,0.1,1,0.1,1.6,0.1c0.3,0,0.6,0,0.9-0.1c0.6-0.1,1.1-0.2,1.7-0.4c0.9-0.3,1.9-0.7,2.8-1.2
			c3.8-2.1,5.4-2.8,8.3-2.1c2.9,0.7,2.9,2.9,2.9,2.9L482.4,277.2z"/>
		<path class="st0" d="M482.4,277.2c-11,14.7-26.1,17.6-26.1,17.6c7.7-3.3,14.7-7.6,19.5-12.9C480.6,276.5,482.4,277.2,482.4,277.2z
			"/>
		<g>
			<path class="st0" d="M461.7,275.6c0.4,0.3,0.9,0.5,1.4,0.6c-2.9,0.6-3.1,3.2-3.1,3.2l-1.2-0.4C459,275.9,461.5,275.7,461.7,275.6
				z"/>
			<path class="st0" d="M463.7,279.7l-1.3,0c-0.5-1.8,0.1-2.9,0.8-3.6c0.5,0.1,1,0.1,1.6,0.1C463.2,277.8,463.7,279.7,463.7,279.7z"
				/>
			<path class="st0" d="M466.9,279l-1.3,0.2c-0.5-1.3-0.4-2.3,0-3c0.6-0.1,1.1-0.2,1.7-0.4C466.3,277.4,466.9,279,466.9,279z"/>
		</g>
	</g>
	<path class="st12" d="M343.3,142.1c0,0,2.9,15.4-2.9,21.5s-2,1.1-0.2-6.8C341.8,148.9,340.5,140.6,343.3,142.1z"/>
	<path class="st12" d="M369.9,135.2c0,0,9.1,3,13.8,11.4C383.7,146.6,377.4,132.9,369.9,135.2z"/>
</g>
<g>
	<g>
		<path class="st3" d="M133.8,20.9c1.2,0,4.7,1.4,4.7,1.4c2.6,1.6,4,2.5,5.7,2.6c1.7,0.2,2.4,3.1,2.4,3.1s6.7,1.5,7.1-2.8
			c0,0-3.8-5.3-4-6c-0.5-1.4,0.4-3.6-1.1-6c-1.5-2.4-2.2-6.2-2.2-6.2s-1.5-0.5-1.7,1c-0.2,1.5,0.9,3.5,0.7,4.2
			c-0.1,0.1-0.1,0.2-0.2,0.4c0,0,0,0,0,0c-0.3,0.4-0.7,0.7-1.1,0.7c0,0-0.1,0-0.1,0c-1.7,0-4.6-2.4-5.8-3.5
			c-1.7-1.6-4.1-3.7-4.7-2.3c-0.6,1.4,1.3,1.3,4.4,5.6l-0.3,0.4c0.2,0.3-3-1.3-5.6-3.3c-1.8-1.4-2.2,0.3-1.8,1
			c0.3,0.7,2.3,1.9,3.6,2.9c0.9,0.7,1.7,1.4,2.3,1.8l-0.2,0.7c-4.4-1-5.1-2.6-6-1.7c-0.9,0.9,1.8,2.8,3.2,3.1
			c0.6,0.1,1.6,0.7,2.6,1.3c-3.5-0.1-4.4-1.2-5-0.3C130,19.9,132.6,20.9,133.8,20.9z"/>
		<path class="st2" d="M145,17.7c-1.1-2,0.1-4.7,0.2-5.1c-0.3,0.4-0.7,0.7-1.1,0.7C143.2,16.2,145,17.7,145,17.7z"/>
	</g>
	<g>
		<path class="st3" d="M331.7,20.9c-1.2,0-4.7,1.4-4.7,1.4c-2.6,1.6-4,2.5-5.7,2.6c-1.7,0.2-2.4,3.1-2.4,3.1s-6.7,1.5-7.1-2.8
			c0,0,3.8-5.3,4-6c0.5-1.4-0.4-3.6,1.1-6c1.5-2.4,2.2-6.2,2.2-6.2s1.5-0.5,1.7,1c0.2,1.5-0.9,3.5-0.7,4.2c0.1,0.1,0.1,0.2,0.2,0.4
			c0,0,0,0,0,0c0.3,0.4,0.7,0.7,1.1,0.7c0,0,0.1,0,0.1,0c1.7,0,4.6-2.4,5.8-3.5c1.7-1.6,4.1-3.7,4.7-2.3c0.6,1.4-1.3,1.3-4.4,5.6
			l0.3,0.4c-0.2,0.3,3-1.3,5.6-3.3c1.8-1.4,2.2,0.3,1.8,1c-0.3,0.7-2.3,1.9-3.6,2.9c-0.9,0.7-1.7,1.4-2.3,1.8l0.2,0.7
			c4.4-1,5.1-2.6,6-1.7c0.9,0.9-1.8,2.8-3.2,3.1c-0.6,0.1-1.6,0.7-2.6,1.3c3.5-0.1,4.4-1.2,5-0.3C335.5,19.9,332.9,20.9,331.7,20.9z
			"/>
		<path class="st2" d="M320.5,17.7c1.1-2-0.1-4.7-0.2-5.1c0.3,0.4,0.7,0.7,1.1,0.7C322.3,16.2,320.5,17.7,320.5,17.7z"/>
	</g>
	<path class="st1" d="M272.6,224.8l-12.9-80l-25.9,2.9l-25.9-2.9l-12.9,80l-6.2,77.6c0,0,2,6.4,14.9,2c0,0,9.6-72,11.1-73.5
		c1.5-1.6,16.7-48.6,16.7-48.6h4.8c0,0,15.2,47,16.7,48.6c1.5,1.6,11.1,73.5,11.1,73.5c12.9,4.4,14.9-2,14.9-2L272.6,224.8z"/>
	<path class="st16" d="M225.7,67.3c1.6,1.6,9.7,4.5,13.9,0l2.9,2.8c0,0-3.3,7.7-9,8c-5.8,0.3-9.9-6.9-9.9-6.9L225.7,67.3z"/>
	<path class="st16" d="M248.4,66.4c9.6-4.1,40.7-15.2,40.7-15.2s20.9-26.2,25.2-30.1c0,0,4.6,0.8,6,6.6c0,0-13.5,28.8-20.8,37.1
		c-7.3,8.2-44.4,26.1-44.4,26.1L248.4,66.4z"/>
	<path class="st15" d="M214.7,65.9c2.9-1.8,17.2,7.8,17.2,7.8s18.7-9.9,23.1-8c0,0,4,5.3,5.5,18.9c1.6,13.6,1.7,69.5,1.7,69.5
		s-12.6,4.4-29.6,4.4c-19.4,0-29.8-5.6-29.8-5.6S199.5,75.5,214.7,65.9z"/>
	<path class="st2" d="M226.4,64.4c0,0,2.1,6.5,0,9c0,0,2.1,4.5,6,4.7c4.5,0.2,6-4.7,6-4.7s-2.4-6.3,0-8.5L226.4,64.4z"/>
	<g>
		<path class="st10" d="M221.3,58c0,0-4.4-8.4-3.5-17.3c0.9-9,14.4-11,23.5-6.6c0,0-2.7-2.6-1.6-3.4c1.1-0.7,2.9,4,2.9,4
			s2.9-0.9,3.3,0c0.4,0.9-2.9,1.4-2.9,1.4s5.9,3.3,0.4,20.6L221.3,58z"/>
		<path class="st3" d="M220.6,52.7c0,0-3.2-3.2-3.6,0.5c-0.5,4.4,3.5,6.2,4.3,4.8C222,56.6,220.6,52.7,220.6,52.7z"/>
		<path class="st3" d="M243.3,52.9c0,0,3.2-3.2,3.6,0.5c0.5,4.4-3.5,6.2-4.3,4.8C241.9,56.8,243.3,52.9,243.3,52.9z"/>
		<path class="st3" d="M231.6,68.6c-7.2,0-11.3-4.7-11.3-18.8c0-7.3,3.7-11.7,11.8-11.7c8.1,0,11.5,4.5,11.5,11.7
			C243.6,64.9,239.1,68.6,231.6,68.6z"/>
		<path class="st6" d="M241.2,54.8c0.1,0.7-0.5,1.4-1.4,1.6c-0.9,0.2-1.7-0.3-1.9-1c-0.1-0.7,0.5-1.4,1.4-1.6
			C240.2,53.6,241.1,54.1,241.2,54.8z"/>
		<path class="st6" d="M226.4,55.2c0,0.7-0.8,1.3-1.7,1.2c-0.9-0.1-1.6-0.7-1.6-1.4c0-0.7,0.8-1.3,1.7-1.2
			C225.7,53.8,226.4,54.5,226.4,55.2z"/>
		<g>
			<path class="st10" d="M237.9,47.5c-0.1,0-0.2,0-0.3-0.1c-1-1-2.7-1-2.8-1c-0.2,0-0.4-0.1-0.4-0.3c0-0.2,0.1-0.4,0.3-0.4
				c0.1,0,2.1-0.1,3.3,1.2c0.1,0.1,0.1,0.4,0,0.5C238.1,47.4,238,47.5,237.9,47.5z"/>
		</g>
		<g>
			<path class="st10" d="M224.4,47.5c-0.1,0-0.2,0-0.2-0.1c-0.1-0.1-0.1-0.4,0-0.5c1.2-1.3,3.2-1.2,3.3-1.2c0.2,0,0.4,0.2,0.3,0.4
				c0,0.2-0.2,0.4-0.4,0.3c0,0-1.8,0-2.8,1C224.5,47.4,224.4,47.5,224.4,47.5z"/>
		</g>
		<path class="st7" d="M237.3,51.3c0,0.9-0.4,1.6-0.9,1.6c-0.5,0-0.9-0.7-0.9-1.6c0-0.9,0.4-1.6,0.9-1.6
			C236.9,49.7,237.3,50.4,237.3,51.3z"/>
		<path class="st7" d="M227.7,51.3c0,0.9-0.4,1.6-0.9,1.6c-0.5,0-0.9-0.7-0.9-1.6c0-0.9,0.4-1.6,0.9-1.6
			C227.3,49.7,227.7,50.4,227.7,51.3z"/>
		<path class="st7" d="M227.7,60.9c0,0,6.4,0.8,9.6-0.8c0,0-1.8,4.3-5.3,3.9C228.5,63.7,227.7,60.9,227.7,60.9z"/>
		<path class="st10" d="M242.8,54.5c0,0-0.2-7.8-3.3-13.9c0,0-5.4,2.5-6.6,1.9c-1.2-0.6,1.1-1.9,1.1-1.9s-8.9,2.9-9.4,2.3
			c-0.5-0.6,2.9-2.3,2.9-2.3l-5.5,1.9c0,0-1.7,7.1-1,12c0,0-2.4-4.1-2.7-6.9c-0.3-2.8,1-10.9,9.3-11.5c8.3-0.6,13,1.3,15.1,5.1
			C244.9,45,244.6,49.7,242.8,54.5z"/>
		<g>
			<path class="st6" d="M232.9,58.6c-0.7,0-1.4-0.2-1.6-0.2l0.2-0.7c0.8,0.2,1.9,0.3,2.2,0c0.1-0.1,0.1-0.4-0.1-0.7
				c-1-2.2-1.3-7.8-1.3-8.1l0.8,0c0,0.1,0.2,5.7,1.2,7.8c0.3,0.6,0.3,1.1,0,1.5C233.9,58.5,233.4,58.6,232.9,58.6z"/>
		</g>
	</g>
	<path class="st17" d="M240.9,69.4c0,0,13,40.5,14.3,73.4c0,0,4.7,1.3,10-5.9c5.3-7.2,2.1-64.4-8-73.9
		C257.1,63,252.5,61.9,240.9,69.4z"/>
	<path class="st16" d="M243,76.5c0,0,2.3-5.4,1.3-9.1c-1-3.7-4.7,0-4.7,0S241.1,73.4,243,76.5z"/>
	<path class="st16" d="M216.8,66.4c-9.6-4.1-40.7-15.2-40.7-15.2s-21-26.9-25.2-30.8c0,0-5.3,3-5.6,9.2c0,0,13.2,27,20.5,35.3
		C173,73.1,210.1,91,210.1,91L216.8,66.4z"/>
	<path class="st17" d="M224.4,69.4c0,0-13,40.5-14.3,73.4c0,0-4.7,1.3-10-5.9c-5.3-7.2-2.1-64.4,8-73.9
		C208.1,63,212.7,61.9,224.4,69.4z"/>
	<path class="st16" d="M222.2,76.5c0,0-2.3-5.4-1.3-9.1c1-3.7,4.7,0,4.7,0S224.2,73.4,222.2,76.5z"/>
	<g>
		<path class="st11" d="M290.3,323.2h-25.9c-1.8-10.3,1.1-20.6,1.1-20.6l11.8-2c1.1,6.5,2.4,9.1,4.2,10.4c0,0,0,0,0,0
			c1.3,1,2.9,1.3,4.8,1.9c2.2,0.8,3.4,2.2,4,3.7C291.5,319.7,290.3,323.2,290.3,323.2z"/>
		<path class="st10" d="M290.3,316.6c-6.4,0.8-20.4,2.2-19.6-1.5c0.7-3.1,6.6-3.9,10.7-4.1c0,0,0,0,0,0c1.3,1,2.9,1.3,4.8,1.9
			C288.6,313.7,289.7,315.1,290.3,316.6z"/>
	</g>
	<g>
		<path class="st11" d="M203.6,323.2h-25.9c0,0-0.8-2.4-0.4-5c0.3-2.1,1.4-4.3,4.4-5.3c2.2-0.8,4-1.1,5.4-2.4
			c1.5-1.4,2.7-4.1,3.6-9.9l11.8,2C202.5,302.6,205.4,312.9,203.6,323.2z"/>
		<path class="st10" d="M177.3,318.2c0.3-2.1,1.4-4.3,4.4-5.3c2.2-0.8,4-1.1,5.4-2.4c3.3,1,7.9,2.9,9.3,5.7
			C198.3,320.1,183.2,319.4,177.3,318.2z"/>
	</g>
</g>
<g>
	<g>
		<path class="st4" d="M389.5,321.4c0,1.1-0.1,1.9-0.1,1.9h-31.5c0-0.6,0-1.2,0-1.9c0.4-8.2,3-15.4,3-15.4l7.9-3.4
			c0.7,4.1,2.4,6.6,4.6,8.3c0.6,0.5,1.2,0.8,1.8,1.2c0.3,0.2,0.6,0.3,0.9,0.4c0.7,0.3,1.3,0.5,2,0.7c2.8,0.8,5.6,1,7.5,1.3
			C389,315.1,389.5,319,389.5,321.4z"/>
		<path class="st18" d="M389.5,321.4c0,1.1-0.1,1.9-0.1,1.9h-31.5c0-0.6,0-1.2,0-1.9H389.5z"/>
		<path class="st18" d="M375.2,312.1l-4.4,1.4l-0.9-1.6l3.5-1C373.9,311.4,374.5,311.8,375.2,312.1z"/>
		<path class="st18" d="M378.1,313.3l-2.9,2l-1.8-0.7l2.7-2C376.7,312.8,377.4,313.1,378.1,313.3z"/>
	</g>
	<g>
		<path class="st4" d="M269.3,321.4c-0.1,1.1-0.4,1.9-0.4,1.9h-21c-0.3-0.6-0.5-1.2-0.6-1.9c-2.1-10,11.9-22.3,11.9-22.3l4.4,5.9
			c0,0-0.5,9.4,3.2,11.4C269.1,317.5,269.4,319.8,269.3,321.4z"/>
		<path class="st18" d="M247.4,321.4h21.9c-0.1,1.1-0.4,1.9-0.4,1.9h-21C247.7,322.6,247.5,322,247.4,321.4z"/>
		<path class="st18" d="M265.9,315.6c0,0-8.8-2-12.9,0.6v-1.5C253.1,314.7,260.5,311.1,265.9,315.6z"/>
		<path class="st18" d="M264.2,313.4c0,0-5.6-2.6-11.1,0l0.6-1.5C253.7,311.9,260.2,309.4,264.2,313.4z"/>
	</g>
	<path class="st19" d="M380,232.2c0,8.4-7.5,77.1-7.5,77.1c-7.5,0.7-13.5-0.8-13.5-0.8c-2.1-34.8-2.3-64.8-2.3-64.8L320.9,217
		l-0.1-0.1c0,0-0.1,0.6-0.4,1.7c-1.8,7.9-9.3,40.9-12.4,48.5c-3.6,8.6-42.5,44.8-42.5,44.8c-7.2-1-13.4-6.2-13.4-6.2
		c14-23.2,33.1-46.5,33.1-46.5c1.5-8.4,2.6-27,3.2-40.9c0-0.2,0-0.4,0-0.6c0.4-9.4,0.6-16.5,0.6-16.5l-6.6-13.5l41.8-15.3l9.4,12
		c0,0,2.1,2,5.5,5.2c0.2,0.1,0.3,0.3,0.5,0.4C352.1,201.7,380,228.5,380,232.2z"/>
	<g>
		<path class="st8" d="M288.4,218.3c0-0.2,0-0.4,0-0.6c8.8-4.8,7.3-12.4,7.3-12.5l0.5-0.1C296.2,205.2,297.8,213.4,288.4,218.3z"/>
		<path class="st8" d="M320.3,211.6c0.3,1.7,0.5,3.5,0.6,5.4l-0.1-0.1c0,0-0.1,0.6-0.4,1.7c-0.4-13.1-5.8-20.8-5.8-20.9l0.5-0.3
			c0.1,0.1,3.5,5,5.1,13.5c6.4-5.6,0.1-17.2,0.1-17.3l0.5-0.3C320.8,193.5,327.4,205.7,320.3,211.6z"/>
		<path class="st8" d="M339.5,189.9C339.5,189.9,339.5,189.9,339.5,189.9c-0.3,0.1-0.6,0.2-0.9,0.2c-3.1,0-8.2-4.3-8.5-4.5l0.4-0.4
			c1.7,1.4,6.4,4.8,8.6,4.3C339.2,189.6,339.4,189.8,339.5,189.9z"/>
	</g>
	<path class="st0" d="M285.4,115.8c0,0,12.7-2,19.1,2c6.4,4.1,14.7,14.6,14.7,14.6s-9.9,1.3-11,8
		C308.1,140.5,300.9,123.4,285.4,115.8z"/>
	<path class="st5" d="M266.3,122.4c-5.4,2.9-14.4,13.8-14.8,20.5c-0.4,6.5,4.4,12.6,7.7,17.7c10.2,16,20.9,30.1,25.5,48.8
		c0,0.1,23.3,9.4,50.6-23.5c0,0-15.4-20.8-20.8-38.5c-2.2-7.2-4.4-14.8-8.6-21.2c-4.6-7-12.5-11.1-20.6-10.4
		C278.4,116.4,271.6,119.6,266.3,122.4z"/>
	<path class="st2" d="M264,115.7c0,0,3.4,5.9,1.8,9.1c0,0,11.8,4.1,11.8-2.5c0,0-2.2-4.9-1.4-8.1L264,115.7z"/>
	<path class="st2" d="M290.2,156c0,0-6.6,1.9-8.2,4.2c-1.7,2.3-3.1,7.5-3.1,7.5h11.3l2.1-3.9l2.5-5.2L290.2,156z"/>
	<g>
		<path class="st4" d="M279.4,109.2c0,0,4.6-1.9,1.6-15.8c-2-9.2-4.8-10.5-6.7-10.6c0,0-2.2-3.4-10-1.8c-5.3,1.1-9.6,4.4-11.5,10.4
			c-2,6.3,2,19.7,7.1,21L279.4,109.2z"/>
		<path class="st3" d="M280.5,99.8c0,0,2.9-4,4-0.1c1.3,4.6-2.7,7.2-3.8,5.9C279.6,104.3,280.5,99.8,280.5,99.8z"/>
		<path class="st3" d="M256.2,104.1c0,0-4-2.9-3.8,1.2c0.3,4.8,4.9,6,5.4,4.3C258.4,108,256.2,104.1,256.2,104.1z"/>
		<path class="st3" d="M271.5,118.8c7.7-1.3,11.2-7,8.7-22.1c-1.3-7.8-6-11.9-14.7-10.5c-8.6,1.4-11.5,6.8-10.2,14.6
			C258,117,263.5,120.1,271.5,118.8z"/>
		<path class="st6" d="M258.8,105.7c0,0.8,0.8,1.5,1.8,1.5c1,0,1.8-0.6,1.8-1.4c0-0.8-0.8-1.5-1.8-1.5
			C259.6,104.3,258.8,104.9,258.8,105.7z"/>
		<path class="st6" d="M274.7,103.5c0.2,0.8,1.1,1.2,2.1,1c1-0.2,1.6-1,1.4-1.8c-0.2-0.8-1.1-1.2-2.1-1
			C275.2,101.9,274.5,102.8,274.7,103.5z"/>
		<g>
			<path class="st7" d="M260.9,97.3c-0.1,0-0.2,0-0.2-0.1c-0.2-0.1-0.2-0.4-0.1-0.5c1.1-1.6,3.2-1.9,3.3-1.9c0.2,0,0.4,0.1,0.4,0.3
				c0,0.2-0.1,0.4-0.3,0.4c0,0-1.9,0.3-2.8,1.6C261.2,97.3,261.1,97.3,260.9,97.3z"/>
		</g>
		<g>
			<path class="st7" d="M275.5,94.9c-0.1,0-0.2,0-0.2-0.1c-1.2-0.9-3.1-0.6-3.1-0.6c-0.2,0-0.4-0.1-0.5-0.3c0-0.2,0.1-0.4,0.3-0.5
				c0.1,0,2.2-0.4,3.8,0.7c0.2,0.1,0.2,0.4,0.1,0.5C275.7,94.9,275.6,94.9,275.5,94.9z"/>
		</g>
		<path class="st7" d="M262.4,101.3c0.2,1,0.7,1.7,1.2,1.6c0.5-0.1,0.8-0.9,0.7-1.9c-0.2-1-0.7-1.7-1.2-1.6
			C262.5,99.5,262.2,100.3,262.4,101.3z"/>
		<path class="st7" d="M272.6,99.6c0.2,1,0.7,1.7,1.2,1.6c0.5-0.1,0.8-0.9,0.7-1.9c-0.2-1-0.7-1.7-1.2-1.6
			C272.8,97.8,272.5,98.6,272.6,99.6z"/>
		<path class="st7" d="M275.5,108.3c0,0-6.7,1.8-10.4,1.1c0,0,2.6,3.2,6.2,2.3C275,110.7,275.5,108.3,275.5,108.3z"/>
		<path class="st1" d="M275.9,89.7c0,0-8.7,6.3-19.6,6.8l0.3,9.7c0,0-10.2-18.8,10-22.1c20.1-3.3,14.3,17.6,14.3,17.6
			S280.1,92.7,275.9,89.7z"/>
		<g>
			<path class="st6" d="M268.7,105.7l-0.1-0.8c0,0,1.2-0.1,1.5-0.8c0.1-0.3-0.4-1.2-0.8-2.1c-0.6-1.2-1.4-2.6-1.7-4.2l0.8-0.2
				c0.3,1.5,1,2.9,1.6,4c0.6,1.2,1.1,2.1,0.8,2.8C270.4,105.6,268.8,105.7,268.7,105.7z"/>
		</g>
		<path class="st12" d="M280.6,89.7c-14.6-6.4-28.4,6.8-28.4,6.8s-1.6-10.7,1.2-13.2c0.7-0.7,1.5-1.2,2.3-1.7c6.5-4.1,15.1-4,19-2.6
			c0.8,0.3,1.4,0.6,1.8,1C278.8,82.4,280.6,89.7,280.6,89.7z"/>
		<path class="st5" d="M278.8,87.3c0,0-12.3-2.4-23.7,5.2c0,0-0.7-6.9,0.6-10.9c6.5-4.1,15.1-4,19-2.6
			C277,81.6,278.8,87.3,278.8,87.3z"/>
		<path class="st14" d="M253.3,95.2c0,0,1.9-8.3,4.6-10.6c4.4-3.9,16.6-5.2,23.1-2.9c6.4,2.3,0,9.4,0,9.4S270.7,83.8,253.3,95.2z"/>
	</g>
	<path class="st3" d="M272.3,150.2c0,0,5,7.8,13.6,12.4c0,0,10.7-9.3,24.6-8.5c0,0-11.5,20.7-21.4,23c-5.2,1.2-24-11.2-24-11.2
		S268.9,152.8,272.3,150.2z"/>
	<path class="st0" d="M253.8,136.1c4.6-7.5,15.2,3.6,18.8,11.5c3.6,7.9,6.2,9.6,6.2,9.6s-10.6,4.4-10.5,12.4
		C268.4,169.5,243.8,152.5,253.8,136.1z"/>
	<path class="st2" d="M285.9,159.2c0,0,6.5-6.3,27.7-14.6l-2.7-8.6c2.4-3.2,6.9-3.2,6.9-3.2s10.9,15.4,9,19.9
		C325.6,155.6,302.9,158.6,285.9,159.2z"/>
	<path class="st3" d="M309.1,146.6c0,0,0.2-0.9,1-2c0.8-1.1,0.6-3.1,0.9-3.7c0.3-0.6,2-3.2,3.1-3.7c1.1-0.5,2.6-1.3,2.9,0.1
		c0.3,1.4-2,1-3,3c0,0,2.3-0.7,4-0.3c1.8,0.4,2.3,2.1,0.1,2c-1.8,0-4,1.2-4,1.2s2.3,0.3,1.9,1.4
		C315.4,146.1,312.6,145.2,309.1,146.6z"/>
</g>
<g>
	<path class="st20" d="M152.2,175.5c1.9,4.9,9.7,13.2,9.7,13.2s19-11.4,27.7-6.6c8.8,4.8,15.7,7.7,21.4,5.6
		c5.7-2.1-18.7-46.4-18.7-46.4l-31.6-12.1c0,0-0.7,8-4.3,9.4c-3.6,1.4-7.5,14.6-7.2,17.1C149.5,158.3,152.2,175.5,152.2,175.5z"/>
	<path class="st2" d="M187.7,189c0,0-8.1,16-25,36.4c0,0-1.7,24.3-46.2,62.6l-4.7-3.7c0,0,26.5-41.5,31.8-54.2
		c5.3-12.7-2.9-24.4,21.4-56.5L187.7,189z"/>
	<path class="st11" d="M161.8,160.8c-7,13.4-9.4,30.6-9.4,30.6l-3.2,8.1c0,0,11.3,6.1,24.4,8.3l5.2-13.9L161.8,160.8z"/>
	<path class="st3" d="M198.4,187.8c0,0,3.5,17.6,2.9,44c0,0,13.7,20.2,2.4,77.7h-5.9c0,0-4.8-49-8.5-62.2
		c-3.7-13.3-17.4-17.3-18.1-57.7L198.4,187.8z"/>
	<g>
		<path class="st10" d="M201.8,206.6c0,0-11.1,2-30.8,1.1l-0.3-2.2l-0.1-0.6l-2-14.3c0,0-1.9-2.3-3.8-6.1c-0.2-0.4-0.5-0.9-0.7-1.4
			c-2.6-5.6-5-13.8-2.4-22.3l4.1,0.2l0.6,0l13.9,0.6l0.6,0l4.6,0.2l0.7,0l3,0.1c0,0,15,13.5,12.3,38.5l0.2,3.5l0,0.6L201.8,206.6z"
			/>
		<g>
			<path class="st11" d="M166.5,161c-0.4,1.1-3,9.6-1.7,23.5c-0.2-0.4-0.5-0.9-0.7-1.4c-1-12.7,1.3-20.6,1.8-22.2
				c0.1-0.2,0.1-0.3,0.1-0.3l0.5,0.2C166.5,160.9,166.5,160.9,166.5,161z"/>
			<path class="st11" d="M201.7,204.6c-3.9,1-10.6,1.3-17,1.3c-5.7,0-11.1-0.2-14-0.4l-0.1-0.6c5,0.2,18.1,0.8,26.6-0.2l-0.5-8.9
				c0.1-10.4-3-19.3-6.1-25.5c-7.7-1.4-9.8-7.1-10.3-8.7c-0.1-0.3-0.1-0.4-0.1-0.4l0.5-0.1c0,0,0,0.2,0.1,0.5c0.5,1.7,2.6,6.6,9.4,8
				c-2.1-4-4-6.8-4.8-7.8c-0.2-0.3-0.4-0.5-0.4-0.5l0.4-0.4c0,0,0.3,0.3,0.7,0.9c2.6,3.5,11.3,16.7,11,33.9l0.5,8.9
				c1.5-0.2,2.8-0.4,3.9-0.7L201.7,204.6z"/>
		</g>
	</g>
	<path class="st19" d="M173.3,100.5c-4.4-2.4-36.3,10.1-36.3,10.1s-4.7,8.4-1.8,11.7c2.9,3.3,13.4,1.8,16.5,0
		c3.2-1.8,11.6-3.2,11.6-3.2L173.3,100.5z"/>
	<path class="st13" d="M201.5,74c0,0,6.6,2.5,9,10.1c2.4,7.6-4.8,26.8-2.3,35.6c2.5,8.8,2.1,25.5-5.7,29
		c-7.8,3.5-23.7-2.8-27.1-12.4c-3.4-9.6-1.9-46.1,4.6-58.5C186.6,65.5,199.9,71.7,201.5,74z"/>
	<path class="st19" d="M193.9,106.7c1.7,1.9,6.2-1.5,6.2-1.5s-0.1,16.5-4.9,17.8c-4.8,1.3-17.1-13-16.6-16.9
		C179.2,102.3,190.1,102.6,193.9,106.7z"/>
	<path class="st1" d="M175.4,102.6c0,0,4.9,4.1,13.3,6.1c8.5,2,13.1-2,17.4,3.4c6.5,8.2-4.1,23.3-9.6,31.1c-2.1,2.9-6.5,11-7.3,18.8
		c0,0-14.7,4.3-27.4-1.3l-0.9-18C160.8,142.7,152.9,118.5,175.4,102.6z"/>
	<path class="st19" d="M190.6,120.1c0,0,6.7-16,8.7-17c1.9-1,6.9,1.4,7.9,3.6c1,2.2,0,7,0,7S201.8,107.6,190.6,120.1z"/>
	<path class="st8" d="M222.8,187.8c-3.1,6.3-10.5,8-10.5,8s-0.6-0.9-1.5-2.4c-0.1-0.2-0.2-0.3-0.3-0.5c-5.9-9.6-23.9-40.1-23.6-56.1
		c0.4-19,12.8-29.4,12.8-29.4c6.3,1.5,8.3,3.2,8.3,3.2s2.1,10.8,0.2,23.8c-1.9,13-5.5,16.4-3.7,17.4c1.8,1,0,2.9,0,2.9
		s10.4,14.6,12.4,19.1c1.3,3,3.4,8,4.8,11.1c0.1,0.2,0.2,0.4,0.3,0.6C222.4,186.9,222.8,187.8,222.8,187.8z"/>
	<path class="st3" d="M204.6,110.6c0,0-7.5,5.5-3.1,14l20.7,21.5c-11.4,12.1-12.5,17.1-20.7,22.7l3.1,4.8c0,0,28.8-22.1,28.9-27.5
		C233.5,143.8,215.9,115.9,204.6,110.6z"/>
	<path class="st3" d="M201,168.8c0,0-4,0.4-6.4,1.1c-2.5,0.6-5.8,1.2-5.9,1.8c-0.1,0.5,5.5,0,5.5,0s-4.6,1.9-4.7,2.6
		c-0.1,0.7,5.8-0.5,5.8-0.5s-3.7,2.3-3.5,2.9c0.2,0.6,4.8-0.9,4.8-0.9s-0.9,2.2-1.7,3.2c0,0,0.9,0.5,2.7-1.5c1.8-2,4.7-1.4,7-3.1
		C206.8,172.4,203.1,168.5,201,168.8z"/>
	<path class="st8" d="M179.9,105.3c0,0-5.7,3.7-9.3,12.6c-3.6,8.9-14.9,25.6-17.6,29.9c-2.7,4.3-0.8,27.8-0.8,27.8
		s-3.3-14.2-4.8-19.8c-1.5-5.6,4.8-19.3,5.7-20c0.9-0.7,5.8,0.6,4.8-5s12-29.6,15.4-30.2C173.3,100.5,178.9,101.6,179.9,105.3z"/>
	<path class="st8" d="M162.3,106.5c-0.1,0.2-0.2,0.4-0.3,0.6c-1.3,1.9-3.7,3.3-3.7,3.3s-4.3,6.1-4.4,6.8c0,0.6-7.5,6-10.9,5.9h0
		c-0.5,0-0.8-0.1-1.1-0.4c-2-1.9,6.7-17.5,8.6-20.9c0.1-0.2,0.2-0.4,0.3-0.5c0-0.1,0.1-0.1,0.1-0.1s-1.5-5.7,4.9-4.6
		c5.3,0.9,6.4,5.1,6.9,7.9C162.8,105.1,162.6,105.8,162.3,106.5z"/>
	<path class="st3" d="M139.9,112.4c4.4-5.8,19.9-17,28-20.3l2,3.8c0,0-15.7,13.8-19.4,19.7c-3.7,5.9-8.3,8.4-12.6,6.4
		C133.5,120,139,113.6,139.9,112.4z"/>
	<path class="st19" d="M160.7,105.3l-0.8,1l-0.4,0.5l-1.4,1.6c0,0-3.5,4.2-3.3,5.9c0.1,1.2-6.6,6.6-11.8,8.9c-2.1,0.9-4,1.3-5.1,0.7
		c-3.8-2.2-2.9-8.7-0.8-13.1c1.9-3.9,10.1-8.8,12.2-10.1c0.3-0.2,0.4-0.3,0.5-0.3c0,0,0,0,0,0l0.8-3.1c0,0,2.9-1.7,5.1-0.7
		c0,0-5,0.2-4.2,2.2C152.4,100.6,159.3,105.2,160.7,105.3z"/>
	<g>
		<path class="st3" d="M178.9,89.2c-5,2.1-4.3,6.6-8.9,6.6c-2.9,0-3.2-3.3-3.2-3.3c1.3-2.8,2.1-7.5,2.3-9.8c0.2-2.3,0.9-1.4,0.9-1.4
			c0-0.2,0-0.4,0-0.6c-0.1-1.5-0.3-2.6,0.7-2c1.1,0.7,1.5,5,1.5,5c0.9-6.3-0.5-7.2,0.6-6.7c1.5,0.8,1.5,6.3,1.5,6.5
			c1.2-3.7,0.9-5.7,1.7-4.9c0.8,0.8-0.4,7.5-0.9,10c-0.1,0.6-0.2,0.9-0.2,0.9C178.8,87.7,178.9,89.2,178.9,89.2z"/>
		<path class="st2" d="M175,88.8c-0.1,0.6-0.2,0.9-0.2,0.9s-1.8-0.2-3.2,1.8C171.7,91.5,172,88.8,175,88.8z"/>
		<path class="st2" d="M170.2,85.9c0-0.5,0.3-3.6-0.3-4.5c0-0.2,0-0.4,0-0.6C171.1,81,170.4,85.3,170.2,85.9z"/>
	</g>
	<path class="st19" d="M173.4,112.4c0,0,3.4-9.2,4.5-11.3c1.1-2.1,6.7-1.7,11-0.9c4.3,0.8,5.1,6.5,5.1,6.5S181,100.6,173.4,112.4z"
		/>
	<path class="st2" d="M195.2,94.3c0,0-4.1,7.5-4,15.9c0,0-6.6,4.5-9-1.1c0,0,2.5-7.4,1.3-17.3C182.7,85,195.2,94.3,195.2,94.3z"/>
	<g>
		<path class="st3" d="M182.3,83.8c0,0-1.2-4.3-3.4-1.3c-2.5,3.5,0,6.9,1.4,6.1C181.6,87.9,182.3,83.8,182.3,83.8z"/>
		<path class="st3" d="M201.5,94.9c0,0,4.3-1.2,2.8,2.2c-1.7,4-5.9,3.5-5.9,2C198.4,97.6,201.5,94.9,201.5,94.9z"/>
		<path class="st3" d="M184,102.6c-6.1-3.4-7.3-9.4-0.6-21.4c3.5-6.2,8.8-8.2,15.6-4.4c6.9,3.9,7.6,9.3,4.1,15.5
			C195.9,105.3,190.3,106.2,184,102.6z"/>
		<path class="st6" d="M198.8,95.5c-0.2,0.7-1.1,1-2,0.7c-0.8-0.3-1.3-1.1-1.1-1.8c0.2-0.7,1.1-1,2-0.7
			C198.5,94,199,94.8,198.8,95.5z"/>
		<path class="st6" d="M186,88.7c-0.4,0.6-1.3,0.7-2.1,0.2c-0.8-0.5-1-1.4-0.7-2c0.4-0.6,1.3-0.7,2.1-0.2
			C186.1,87.3,186.4,88.1,186,88.7z"/>
		<g>
			<path class="st7" d="M199.6,87.7c-0.2,0-0.3-0.1-0.3-0.3c-0.3-1.4-1.9-2.2-1.9-2.2c-0.2-0.1-0.2-0.3-0.1-0.5
				c0.1-0.2,0.3-0.2,0.5-0.1c0.1,0,1.8,1,2.2,2.6C200,87.5,199.9,87.7,199.6,87.7C199.7,87.7,199.7,87.7,199.6,87.7z"/>
		</g>
		<g>
			<path class="st7" d="M191.2,81.8c-0.1,0-0.1,0-0.2-0.1c0,0-1.5-0.9-2.8-0.5c-0.2,0.1-0.4,0-0.4-0.2c-0.1-0.2,0-0.4,0.2-0.4
				c1.6-0.5,3.3,0.5,3.4,0.5c0.2,0.1,0.2,0.3,0.1,0.5C191.5,81.7,191.4,81.8,191.2,81.8z"/>
		</g>
		<path class="st7" d="M197.1,90.7c-0.4,0.8-1.1,1.2-1.5,0.9c-0.4-0.2-0.4-1,0-1.8c0.4-0.8,1.1-1.2,1.5-0.9
			C197.5,89.1,197.5,89.9,197.1,90.7z"/>
		<path class="st7" d="M188.5,86c-0.4,0.8-1.1,1.2-1.5,0.9c-0.4-0.2-0.4-1,0-1.8c0.4-0.8,1.1-1.2,1.5-0.9
			C189,84.5,189,85.3,188.5,86z"/>
		<path class="st7" d="M185.6,93.9c0,0,3.5,2.7,6.1,2.8c0,0-2.7,2.2-4.6,0.8C185,96,185.6,93.9,185.6,93.9z"/>
		<path class="st7" d="M195.3,89.1c0,0,1.6-1.6,2.3-1c0.7,0.5,0.3,2.5,0.3,2.5l1.4,0l-1.2-0.5c0,0,0.4-2-0.3-2.4
			C196.7,87.1,195.3,89.1,195.3,89.1z"/>
		<path class="st7" d="M189.2,86c0,0,0.5-2.2-0.3-2.5c-0.8-0.3-2.3,1-2.3,1l-0.8-1.2l1,0.8c0,0,1.5-1.4,2.2-0.9
			C190.1,83.7,189.2,86,189.2,86z"/>
		<path class="st13" d="M200.7,79.5c0,0-2.2-3.1-5.2-0.6c-3,2.4-9.9,6.3-13.2,5c-3.4-1.3,7.4-15.6,16.7-11.4
			c9.3,4.2,8.5,17.9,4.6,22.2c-3.9,4.3-2,0.3-2,0.3s0.3-6.2,1.6-10.2C204.3,80.6,200.7,79.5,200.7,79.5z"/>
		<g>
			<path class="st6" d="M190.4,92.5c-0.2,0-0.3,0-0.5-0.1l0.2-0.7c0.6,0.2,0.9-0.1,1.1-0.4c0.2-0.4,0.2-0.8,0-1
				c-0.1-0.1-0.3-0.1-0.5,0l-0.4-0.7c0.8-0.4,1.2-0.1,1.4,0.1c0.4,0.4,0.5,1.3,0.1,1.9C191.5,92.2,191,92.5,190.4,92.5z"/>
		</g>
	</g>
	<g>
		<path class="st19" d="M235.3,145.2c-0.4,5.4-13.7,22.9-15.9,23.5c-0.6,0.2-1.2,0.5-1.7,0.9c-0.2,0.2-0.5,0.3-0.7,0.5
			c-1.3,1-2.2,2.2-2.2,2.2c-3.9-0.3-14.8-5.3-11.3-6.4c0.2-0.1,0.4-0.2,0.7-0.4c0.1-0.1,0.3-0.2,0.5-0.4
			c4.1-3.5,12.2-17.5,12.2-18.6c0-1.2,1.4-1.4,1.4-1.4s-7.6-11.1-12-12.5c-4.4-1.3-6.6-6.7-6.6-6.7c-4.3-18.4,8.3-15.5,8.3-15.5
			C217.2,116.1,235.6,139.8,235.3,145.2z"/>
		<g>
			<path class="st20" d="M217.6,169.6c-0.2,0.2-0.5,0.3-0.7,0.5c-6-0.4-11-3.3-12.8-4.6c0.1-0.1,0.3-0.2,0.5-0.4
				C206.6,166.5,211.7,169.4,217.6,169.6z"/>
		</g>
	</g>
	<g>
		<path class="st20" d="M162.3,106.5c-0.1,0.2-0.2,0.4-0.3,0.6c-0.9,0-1.7-0.1-2.4-0.3c-3.9-0.8-7-3-9-4.9c-0.5-0.4-0.9-0.9-1.2-1.3
			c0.3-0.2,0.4-0.3,0.5-0.3c0.3,0.3,0.6,0.7,1,1c2,1.9,5.1,4.2,9.1,4.9C160.7,106.4,161.4,106.4,162.3,106.5z"/>
	</g>
	<g>
		<path class="st20" d="M221.8,185.6c-1.8,3.1-5.2,6.8-11.1,7.8c-0.1-0.2-0.2-0.3-0.3-0.5c6.1-0.9,9.4-4.9,11.2-7.9
			C221.7,185.2,221.8,185.4,221.8,185.6z"/>
	</g>
	<g>
		<path class="st5" d="M120.8,286.6c0,0-1.4,1.4-2.8,3.9c-1.4,2.5,0.1,4.8-6.8,10.6c0,0-14.1-8.2-20.5-18.9c0,0,0.1-3,3.2-3.7
			c1.7-0.4,6.2,1.8,10.6,2.6c0.6,0.1,1.2,0.2,1.9,0.3c0.8,0.1,1.5,0.1,2.2,0c0.7-0.1,1.3-0.2,1.9-0.5h0c1.5-0.6,2.7-1.8,3.3-3.9
			c0,0,3.7,2.1,1.2,5.7C115,282.7,119.4,280.7,120.8,286.6z"/>
		<path class="st0" d="M111.1,301.1c0,0-14.1-8.2-20.5-18.9c0,0,2.4-0.5,4.3,3C96.9,288.8,112.3,296.8,111.1,301.1z"/>
		<path class="st0" d="M111.2,284.4c-1.1,1.8-1.1-1.5-2.6-3.1c0.7-0.1,1.3-0.2,1.9-0.5h0C111.1,281.6,112.1,283,111.2,284.4z"/>
		<path class="st0" d="M106.8,284.5c-1.2,1.1-1.6-1.8-2.3-3.4c0.6,0.1,1.2,0.2,1.9,0.3C107,282.3,107.7,283.7,106.8,284.5z"/>
	</g>
	<g>
		<path class="st5" d="M207.5,323.2h-19.9c0,0-0.8-2.8,0-5.8c0.4-1.3,2.4-2.6,4.3-4.3c0.5-0.5,1-1,1.5-1.5c0.4-0.4,0.7-0.9,1-1.5
			c0.4-0.6,0.7-1.3,0.8-2.1c0.3-1.5,0.2-3.3-0.7-5.4c0,0,6.8-1.4,9.2,2.3c0,0,0.2-1.7,2.4-0.6c0,0-0.3,3.4,0.1,6.3
			C206.7,313.5,209.4,314.3,207.5,323.2z"/>
		<path class="st0" d="M202.3,311.2c-0.2,0.2-0.4,0.3-0.7,0.3c-0.2,0-0.4-0.1-0.6-0.2c-1-0.8-3.3-2.1-6.6-1.2
			c0.4-0.6,0.7-1.3,0.8-2.1c1.3-0.5,3.8-0.8,6.9,1.9C202.6,310.2,202.6,310.8,202.3,311.2z"/>
		<path class="st0" d="M200.6,314.5l-0.1,0.2c-0.3,0.4-0.8,0.5-1.2,0.3c-1.4-0.8-4.4-2.3-7.4-1.9c0.5-0.5,1-1,1.5-1.5
			c1.5-0.3,4.3-0.5,7,1.7C200.8,313.6,200.9,314.1,200.6,314.5z"/>
	</g>
</g>
</svg>
