
<!-- Generator: Element Pack Addon  -->
<svg version="1.1" id="Layer_1" xmlns="http://www.w3.org/2000/svg" xmlns:xlink="http://www.w3.org/1999/xlink" x="0px" y="0px"
	 viewBox="0 0 101.4 205.4" style="enable-background:new 0 0 101.4 205.4;" xml:space="preserve">
<style type="text/css">
	.st0{fill:#E2E2E2;}
	.st1{fill:#D5D5D5;}
</style>
<path class="st0" d="M101.9,47.1c-0.1-0.1-0.2-0.1-0.3-0.2c-0.1,0-0.2-0.1-0.2-0.1c0-10.6,0-21.1,0-31.7c0-1-0.1-1.9-0.3-2.8
	c-0.6-3.1-2.1-5.8-4.2-7.9c-0.7-0.7-1.5-1.4-2.4-1.9C92.2,0.9,89.3,0,86.3,0c-0.3,0-0.7,0-1,0C61.9,0,38.5,0,15.1,0
	c-1.9,0-3.7,0.3-5.3,1C8.5,1.5,7.3,2.1,6.2,2.9C5.6,3.4,5,3.9,4.4,4.4c-2.1,2.1-3.6,4.9-4.2,7.9C0.1,13.3,0,14.2,0,15.1
	c0,4.2,0,8.5,0,12.7c-0.1,0-0.1,0-0.2,0c-0.1,0-0.2,0.1-0.3,0.1c-0.3,0.1-0.4,0.4-0.4,0.6c0,2.1,0,4.1,0,6.2c0,0.3,0,0.7,0.4,0.8
	c0.1,0,0.2,0.1,0.3,0.1c0.1,0,0.1,0,0.2,0c0,2.3,0,4.7,0,7c-0.1,0-0.1,0-0.2,0.1c-0.1,0.1-0.2,0.1-0.3,0.2c-0.3,0.2-0.4,0.3-0.4,0.8
	c0,3.9,0,7.9,0,11.8c0,0.6,0,0.9,0.4,1.1c0.1,0.1,0.2,0.1,0.3,0.2c0.1,0,0.1,0,0.2,0.1c0,1.4,0,2.7,0,4.1c-0.1,0-0.1,0-0.2,0.1
	c-0.1,0.1-0.2,0.1-0.3,0.2c-0.3,0.2-0.4,0.3-0.4,0.8c0,4.1,0,8.3,0,12.4c0,0.7,0,0.9,0.4,1.2c0.1,0.1,0.2,0.1,0.3,0.2
	c0.1,0,0.1,0.1,0.2,0.1c0,3.6,0,7.3,0,10.9c0,34.4,0,68.8,0,103.2c0,1.3,0.2,2.7,0.5,3.9c0.4,1.5,1,2.8,1.8,4.1
	c0.6,1,1.3,1.9,2.2,2.7c0.6,0.6,1.1,1.1,1.8,1.5c1.1,0.8,2.3,1.5,3.6,1.9c1.7,0.6,3.5,1,5.3,1c23.4,0,46.8,0,70.1,0c0.3,0,0.7,0,1,0
	c3.1,0,5.9-0.9,8.3-2.5c0.9-0.6,1.6-1.2,2.4-1.9c0.8-0.8,1.5-1.7,2.2-2.7c0.8-1.3,1.4-2.6,1.8-4.1c0.3-1.2,0.5-2.6,0.5-3.9
	c0-34.4,0-68.8,0-103.2c0-5.4,0-10.7,0-16.1c0.1,0,0.2-0.1,0.2-0.1c0.1-0.1,0.2-0.1,0.3-0.2c0.3-0.2,0.4-0.3,0.4-0.8
	c0-3.9,0-17.6,0-21.6C102.3,47.6,102.3,47.4,101.9,47.1z M96,188.6c0,6-4.9,10.8-10.8,10.8H16.3c-3,0-5.7-1.2-7.7-3.2
	c-2-2-3.2-4.7-3.2-7.7V16.3c0-6,4.9-10.8,10.8-10.8h8.2c0.8,0,1.6,0.5,2,1.2c0.2,0.3,0.3,0.7,0.3,1.1c0,1.1,0.4,2.1,1.1,2.9
	c0.5,0.6,1.1,1.1,1.8,1.4c0,0,0.1,0,0.1,0c0.3,0.1,0.5,0.2,0.8,0.2c0.3,0.1,0.6,0.1,0.9,0.1h38.6c2.6,0,4.7-2.1,4.7-4.7
	c0-1.2,1-2.2,2.2-2.2h8.2c2.6,0,5,0.9,6.9,2.5c2.4,2,3.9,5,3.9,8.4V188.6z"/>
<g id="XMLID_80_">
	<path id="XMLID_90_" class="st1" d="M57,8.1H46.2c-0.4,0-0.7-0.3-0.7-0.7l0,0c0-0.4,0.3-0.7,0.7-0.7H57c0.4,0,0.7,0.3,0.7,0.7l0,0
		C57.8,7.7,57.4,8.1,57,8.1z"/>
	<path id="XMLID_89_" class="st1" d="M64.1,7.3c0,0.6-0.5,1.1-1.1,1.1c-0.6,0-1.1-0.5-1.1-1.1s0.5-1.1,1.1-1.1
		C63.6,6.2,64.1,6.7,64.1,7.3z"/>
</g>
</svg>
