
<!-- Generator: Element Pack Addon  -->
<svg version="1.1" id="Layer_1" xmlns="http://www.w3.org/2000/svg" xmlns:xlink="http://www.w3.org/1999/xlink" x="0px" y="0px"
	 viewBox="0 0 198.7 152.8" style="enable-background:new 0 0 198.7 152.8;" xml:space="preserve">
<style type="text/css">
	.st0{fill:#272727;}
	.st1{fill:#343434;}
</style>
<g>
	<path id="XMLID_423_" class="st0" d="M17.4-0.1c-0.1,0.1-0.1,0.2-0.1,0.4c-0.1,0.2-0.1,0.4-0.1,0.6c0,0.3,0.2,0.6,0.8,0.6
		c0.4,0,0.8,0,1.2,0c2.5,0-0.3,0,2.2,0c0.3,0,2,0,2.4,0c0.6,0,0.8-0.3,0.8-0.6c0-0.2,0-0.4-0.1-0.6c0-0.1-0.1-0.3-0.1-0.4
		c-0.2-0.3-0.2-0.5-0.6-0.5c-3.1,0-2.2,0-5.3,0C17.8-0.6,17.6-0.6,17.4-0.1z"/>
	<path id="XMLID_422_" class="st0" d="M-0.1,20.4c0.1,0.1,0.2,0.1,0.4,0.2c0.2,0.1,0.4,0.2,0.6,0.2c0.3,0,0.6-0.3,0.6-1.1
		c0-0.6,0-1.1,0-1.7c0-3.5,0,0.4,0-3c0-0.5,0-2.8,0-3.2c0-0.8-0.3-1.1-0.6-1.1c-0.2,0-0.4,0.1-0.6,0.2C0.1,10.9,0,10.9-0.1,11
		c-0.3,0.2-0.5,0.3-0.5,0.9c0,4.3,0,3.1,0,7.3C-0.5,19.8-0.5,20.1-0.1,20.4z"/>
	<path id="XMLID_421_" class="st0" d="M27.3-0.1c-0.1,0.1-0.1,0.2-0.1,0.4C27.1,0.4,27,0.7,27,0.9c0,0.3,0.2,0.6,0.8,0.6
		c0.4,0,0.8,0,1.2,0c2.5,0-0.3,0,2.2,0c0.3,0,2,0,2.4,0c0.6,0,0.8-0.3,0.8-0.6c0-0.2,0-0.4-0.1-0.6c0-0.1-0.1-0.3-0.1-0.4
		c-0.2-0.3-0.2-0.5-0.6-0.5c-3.1,0-2.2,0-5.3,0C27.7-0.6,27.5-0.6,27.3-0.1z"/>
	<path class="st1" d="M10,0c-0.2,0-0.5,0-0.8,0.1c-0.3,0-0.7,0.1-1.1,0.2c-0.8,0.2-1.6,0.5-2.5,1C4.8,1.8,3.9,2.4,3.1,3.2
		C2.4,3.9,1.8,4.8,1.3,5.6c-0.4,0.9-0.8,1.7-1,2.5C0.2,8.5,0.2,8.9,0.1,9.2C0.1,9.5,0,9.8,0,10c0,0.5,0,0.7,0,0.7L0,142
		c0,0,0,0.3,0,0.7c0,0.2,0,0.5,0.1,0.8c0,0.3,0.1,0.7,0.2,1.1c0.2,0.8,0.5,1.6,1,2.5c0.5,0.9,1.1,1.7,1.8,2.5
		c0.8,0.7,1.6,1.4,2.5,1.9c0.9,0.4,1.7,0.8,2.5,1c0.4,0.1,0.7,0.2,1.1,0.2c0.3,0.1,0.6,0.1,0.8,0.1c0.5,0,0.7,0,0.7,0h177.2
		c0,0,0.3,0,0.7,0c0.2,0,0.5,0,0.8-0.1c0.3,0,0.7-0.1,1.1-0.2c0.8-0.2,1.6-0.5,2.5-1c0.9-0.5,1.7-1.1,2.5-1.9
		c0.7-0.8,1.4-1.6,1.8-2.5c0.4-0.9,0.8-1.7,1-2.5c0.1-0.4,0.2-0.7,0.2-1.1c0-0.3,0.1-0.6,0.1-0.8c0-0.5,0-0.7,0-0.7v0
		c0,0,0-43.7,0-131.2c0-2.8-1.1-5.2-2.4-6.8c-1.4-1.6-2.9-2.6-4.2-3.1c-1.3-0.5-2.4-0.7-3.1-0.8c-0.7,0-1.1-0.1-1.1-0.1L10.7,0
		C10.7,0,10.5,0,10,0z M189.2,7.1c1.3,0,2.4,1.1,2.4,2.4v133.8c0,1.3-1.1,2.4-2.4,2.4H9.5c-1.3,0-2.4-1.1-2.4-2.4V9.5
		c0-1.3,1.1-2.4,2.4-2.4H189.2z"/>
	<path id="XMLID_416_" class="st0" d="M3.7,75c0.8,0,1.4,0.6,1.4,1.4c0,0.8-0.6,1.4-1.4,1.4c-0.8,0-1.4-0.6-1.4-1.4
		C2.3,75.6,3,75,3.7,75z"/>
</g>
</svg>
