
<!-- Generator: Element Pack Addon  -->
<svg version="1.1" id="Layer_1" xmlns="http://www.w3.org/2000/svg" xmlns:xlink="http://www.w3.org/1999/xlink" x="0px" y="0px"
	 viewBox="0 0 101.5 205.4" style="enable-background:new 0 0 101.5 205.4;" xml:space="preserve">
<style type="text/css">
	.st0{fill:#343434;}
	.st1{fill:#272727;}
</style>
<g>
	<path class="st0" d="M101.1,12.4c-0.6-3.1-2.1-5.8-4.2-7.9c-0.7-0.7-1.5-1.4-2.4-1.9C92.2,0.9,89.3,0,86.3,0c-0.3,0-0.7,0-1,0
		C61.9,0,38.5,0,15.1,0c-1.9,0-3.7,0.3-5.3,1C8.5,1.5,7.3,2.1,6.2,2.9C5.6,3.4,5,3.9,4.4,4.4c-2.1,2.1-3.6,4.9-4.2,7.9
		C0.1,13.3,0,14.2,0,15.1c0,24,0,47.9,0,71.9c0,34.4,0,68.8,0,103.2c0,1.3,0.2,2.7,0.5,3.9c0.4,1.5,1,2.8,1.8,4.1
		c0.6,1,1.3,1.9,2.2,2.7c0.6,0.6,1.1,1.1,1.8,1.5c1.1,0.8,2.3,1.5,3.6,1.9c1.7,0.6,3.5,1,5.3,1c23.4,0,46.8,0,70.1,0
		c0.3,0,0.7,0,1,0c3.1,0,5.9-0.9,8.3-2.5c0.9-0.6,1.6-1.2,2.4-1.9c0.8-0.8,1.5-1.7,2.2-2.7c0.8-1.3,1.4-2.6,1.8-4.1
		c0.3-1.2,0.5-2.6,0.5-3.9c0-34.4,0-68.8,0-103.2c0-24,0-47.9,0-71.9C101.4,14.2,101.3,13.3,101.1,12.4z M96,188.6
		c0,6-4.9,10.8-10.8,10.8H16.3c-6,0-10.8-4.9-10.8-10.8V16.3c0-6,4.9-10.8,10.8-10.8h8.2c1.2,0,2.2,1,2.2,2.2c0,2.6,2.1,4.7,4.7,4.7
		h38.6c2.6,0,4.7-2.1,4.7-4.7c0-1.2,1-2.2,2.2-2.2h8.2c6,0,10.8,4.9,10.8,10.8V188.6z"/>
	<path id="XMLID_107_" class="st0" d="M-0.5,35.7c0.1,0,0.2,0.1,0.3,0.1c0.2,0.1,0.3,0.1,0.5,0.1c0.3,0,0.5-0.2,0.5-0.6
		c0-0.3,0-0.6,0-0.9c0-1.8,0-3.6,0-5.3c0-0.2,0-0.5,0-0.7c0-0.4-0.2-0.5-0.5-0.6c-0.2,0-0.3,0-0.5,0.1c-0.1,0-0.2,0.1-0.3,0.1
		c-0.3,0.1-0.4,0.4-0.4,0.6c0,2.1,0,4.1,0,6.2C-0.8,35.2-0.8,35.5-0.5,35.7z"/>
	<path id="XMLID_104_" class="st0" d="M-0.5,56.8c0.1,0.1,0.2,0.1,0.3,0.2c0.2,0.1,0.3,0.2,0.5,0.1c0.3,0,0.5-0.3,0.5-1
		c0-0.5,0-1,0-1.5c0-3.2,0-6.4,0-9.6c0-0.4,0-0.8,0-1.3c0-0.7-0.2-1-0.5-1c-0.2,0-0.3,0.1-0.5,0.1c-0.1,0.1-0.2,0.1-0.3,0.2
		c-0.3,0.2-0.4,0.3-0.4,0.8c0,3.9,0,7.9,0,11.8C-0.8,56.3-0.8,56.6-0.5,56.8z"/>
	<path id="XMLID_77_" class="st0" d="M101.9,47.1c-0.1-0.1-0.2-0.1-0.3-0.2c-0.2-0.1-0.3-0.2-0.5-0.1c-0.3,0-0.5,0.3-0.5,1
		c0,0.5,0,1,0,1.5c0,3.2,0,6.4,0,9.6c0,0.4,0,10.6,0,11c0,0.7,0.2,1,0.5,1c0.2,0,0.3-0.1,0.5-0.1c0.1-0.1,0.2-0.1,0.3-0.2
		c0.3-0.2,0.4-0.3,0.4-0.8c0-3.9,0-17.6,0-21.6C102.3,47.6,102.3,47.4,101.9,47.1z"/>
	<path id="XMLID_74_" class="st0" d="M-0.5,75.8c0.1,0.1,0.2,0.1,0.3,0.2c0.2,0.1,0.3,0.2,0.5,0.1c0.3,0,0.5-0.3,0.5-1.1
		c0-0.5,0-1.1,0-1.6c0-3.4,0-6.7,0-10.1c0-0.4,0-0.9,0-1.3c0-0.8-0.2-1-0.5-1.1c-0.2,0-0.3,0.1-0.5,0.1c-0.1,0.1-0.2,0.1-0.3,0.2
		c-0.3,0.2-0.4,0.3-0.4,0.8c0,4.1,0,8.3,0,12.4C-0.8,75.3-0.8,75.6-0.5,75.8z"/>
	<path id="XMLID_65_" class="st1" d="M57,8.1H46.2c-0.4,0-0.7-0.3-0.7-0.7l0,0c0-0.4,0.3-0.7,0.7-0.7H57c0.4,0,0.7,0.3,0.7,0.7l0,0
		C57.8,7.7,57.4,8.1,57,8.1z"/>
	<path id="XMLID_61_" class="st1" d="M64.1,7.3c0,0.6-0.5,1.1-1.1,1.1c-0.6,0-1.1-0.5-1.1-1.1s0.5-1.1,1.1-1.1
		C63.6,6.2,64.1,6.7,64.1,7.3z"/>
</g>
</svg>
