
<!-- Generator: Element Pack Addon  -->
<svg version="1.1" id="Layer_1" xmlns="http://www.w3.org/2000/svg" xmlns:xlink="http://www.w3.org/1999/xlink" x="0px" y="0px"
	 viewBox="0 0 205.4 101.5" style="enable-background:new 0 0 205.4 101.5;" xml:space="preserve">
<style type="text/css">
	.st0{fill:#343434;}
	.st1{fill:#272727;}
</style>
<g>
	<path class="st0" d="M12.4,0.3C9.3,0.9,6.6,2.4,4.4,4.5C3.7,5.2,3.1,6,2.5,6.9C0.9,9.3,0,12.1,0,15.2c0,0.3,0,0.7,0,1
		c0,23.4,0,46.8,0,70.1c0,1.9,0.3,3.7,1,5.3c0.5,1.3,1.1,2.5,1.9,3.6c0.5,0.6,1,1.2,1.5,1.8c2.1,2.1,4.9,3.6,7.9,4.2
		c0.9,0.2,1.8,0.3,2.8,0.3c24,0,47.9,0,71.9,0c34.4,0,68.8,0,103.2,0c1.3,0,2.7-0.2,3.9-0.5c1.5-0.4,2.8-1,4.1-1.8
		c1-0.6,1.9-1.3,2.7-2.2c0.6-0.6,1.1-1.1,1.5-1.8c0.8-1.1,1.5-2.3,1.9-3.6c0.6-1.7,1-3.5,1-5.3c0-23.4,0-46.8,0-70.1
		c0-0.3,0-0.7,0-1c0-3.1-0.9-5.9-2.5-8.3c-0.6-0.9-1.2-1.6-1.9-2.4c-0.8-0.8-1.7-1.5-2.7-2.2c-1.3-0.8-2.6-1.4-4.1-1.8
		c-1.2-0.3-2.6-0.5-3.9-0.5c-34.4,0-68.8,0-103.2,0c-24,0-47.9,0-71.9,0C14.2,0.1,13.3,0.2,12.4,0.3z M188.6,5.4
		c6,0,10.8,4.9,10.8,10.8v68.9c0,6-4.9,10.8-10.8,10.8H16.3c-6,0-10.8-4.9-10.8-10.8V77c0-1.2,1-2.2,2.2-2.2c2.6,0,4.7-2.1,4.7-4.7
		V31.4c0-2.6-2.1-4.7-4.7-4.7c-1.2,0-2.2-1-2.2-2.2v-8.2c0-6,4.9-10.8,10.8-10.8H188.6z"/>
	<path id="XMLID_107_" class="st0" d="M35.7,101.9c0-0.1,0.1-0.2,0.1-0.3c0.1-0.2,0.1-0.3,0.1-0.5c0-0.3-0.2-0.5-0.6-0.5
		c-0.3,0-0.6,0-0.9,0c-1.8,0-3.6,0-5.3,0c-0.2,0-0.5,0-0.7,0c-0.4,0-0.5,0.2-0.6,0.5c0,0.2,0,0.3,0.1,0.5c0,0.1,0.1,0.2,0.1,0.3
		c0.1,0.3,0.4,0.4,0.6,0.4c2.1,0,4.1,0,6.2,0C35.2,102.3,35.5,102.3,35.7,101.9z"/>
	<path id="XMLID_104_" class="st0" d="M56.8,101.9c0.1-0.1,0.1-0.2,0.2-0.3c0.1-0.2,0.2-0.3,0.1-0.5c0-0.3-0.3-0.5-1-0.5
		c-0.5,0-1,0-1.5,0c-3.2,0-6.4,0-9.6,0c-0.4,0-0.8,0-1.3,0c-0.7,0-1,0.2-1,0.5c0,0.2,0.1,0.3,0.1,0.5c0.1,0.1,0.1,0.2,0.2,0.3
		c0.2,0.3,0.3,0.4,0.8,0.4c3.9,0,7.9,0,11.8,0C56.3,102.3,56.6,102.3,56.8,101.9z"/>
	<path id="XMLID_77_" class="st0" d="M47.1-0.5c-0.1,0.1-0.1,0.2-0.2,0.3c-0.1,0.2-0.2,0.3-0.1,0.5c0,0.3,0.3,0.5,1,0.5
		c0.5,0,1,0,1.5,0c3.2,0,6.4,0,9.6,0c0.4,0,10.6,0,11,0c0.7,0,1-0.2,1-0.5c0-0.2-0.1-0.3-0.1-0.5c-0.1-0.1-0.1-0.2-0.2-0.3
		c-0.2-0.3-0.3-0.4-0.8-0.4c-3.9,0-17.6,0-21.6,0C47.6-0.8,47.4-0.8,47.1-0.5z"/>
	<path id="XMLID_74_" class="st0" d="M75.8,101.9c0.1-0.1,0.1-0.2,0.2-0.3c0.1-0.2,0.2-0.3,0.1-0.5c0-0.3-0.3-0.5-1.1-0.5
		c-0.5,0-1.1,0-1.6,0c-3.4,0-6.7,0-10.1,0c-0.4,0-0.9,0-1.3,0c-0.8,0-1,0.2-1.1,0.5c0,0.2,0.1,0.3,0.1,0.5c0.1,0.1,0.1,0.2,0.2,0.3
		c0.2,0.3,0.3,0.4,0.8,0.4c4.1,0,8.3,0,12.4,0C75.3,102.3,75.6,102.3,75.8,101.9z"/>
	<path id="XMLID_65_" class="st1" d="M8.1,44.4v10.8c0,0.4-0.3,0.7-0.7,0.7l0,0c-0.4,0-0.7-0.3-0.7-0.7V44.4c0-0.4,0.3-0.7,0.7-0.7
		l0,0C7.7,43.7,8.1,44,8.1,44.4z"/>
	<path id="XMLID_61_" class="st1" d="M7.3,37.4c0.6,0,1.1,0.5,1.1,1.1c0,0.6-0.5,1.1-1.1,1.1s-1.1-0.5-1.1-1.1
		C6.2,37.9,6.7,37.4,7.3,37.4z"/>
</g>
</svg>
