
<!-- Generator: Element Pack Addon  -->
<svg version="1.1" id="Layer_1" xmlns="http://www.w3.org/2000/svg" xmlns:xlink="http://www.w3.org/1999/xlink" x="0px" y="0px"
	 viewBox="0 0 205.4 101.4" style="enable-background:new 0 0 205.4 101.4;" xml:space="preserve">
<style type="text/css">
	.st0{fill:#E2E2E2;}
	.st1{fill:#D5D5D5;}
</style>
<g>
	<path class="st0" d="M47.1-0.5c-0.1,0.1-0.1,0.2-0.2,0.3c0,0.1-0.1,0.2-0.1,0.2C36.3,0,25.7,0,15.1,0c-1,0-1.9,0.1-2.8,0.3
		C9.3,0.8,6.6,2.3,4.4,4.4C3.7,5.2,3.1,5.9,2.5,6.8C0.9,9.2,0,12.1,0,15.1c0,0.3,0,0.7,0,1c0,23.4,0,46.8,0,70.1
		c0,1.9,0.3,3.7,1,5.3c0.5,1.3,1.1,2.5,1.9,3.6c0.5,0.6,1,1.2,1.5,1.8c2.1,2.1,4.9,3.6,7.9,4.2c0.9,0.2,1.8,0.3,2.8,0.3
		c4.2,0,8.5,0,12.7,0c0,0.1,0,0.1,0,0.2c0,0.1,0.1,0.2,0.1,0.3c0.1,0.3,0.4,0.4,0.6,0.4c2.1,0,4.1,0,6.2,0c0.3,0,0.7,0,0.8-0.4
		c0-0.1,0.1-0.2,0.1-0.3c0-0.1,0-0.1,0-0.2c2.3,0,4.7,0,7,0c0,0.1,0,0.1,0.1,0.2c0.1,0.1,0.1,0.2,0.2,0.3c0.2,0.3,0.3,0.4,0.8,0.4
		c3.9,0,7.9,0,11.8,0c0.6,0,0.9,0,1.1-0.4c0.1-0.1,0.1-0.2,0.2-0.3c0-0.1,0-0.1,0.1-0.2c1.4,0,2.7,0,4.1,0c0,0.1,0,0.1,0.1,0.2
		c0.1,0.1,0.1,0.2,0.2,0.3c0.2,0.3,0.3,0.4,0.8,0.4c4.1,0,8.3,0,12.4,0c0.7,0,0.9,0,1.2-0.4c0.1-0.1,0.1-0.2,0.2-0.3
		c0-0.1,0.1-0.1,0.1-0.2c3.6,0,7.3,0,10.9,0c34.4,0,68.8,0,103.2,0c1.3,0,2.7-0.2,3.9-0.5c1.5-0.4,2.8-1,4.1-1.8
		c1-0.6,1.9-1.3,2.7-2.2c0.6-0.6,1.1-1.1,1.5-1.8c0.8-1.1,1.5-2.3,1.9-3.6c0.6-1.7,1-3.5,1-5.3c0-23.4,0-46.8,0-70.1
		c0-0.3,0-0.7,0-1c0-3.1-0.9-5.9-2.5-8.3c-0.6-0.9-1.2-1.6-1.9-2.4c-0.8-0.8-1.7-1.5-2.7-2.2c-1.3-0.8-2.6-1.4-4.1-1.8
		c-1.2-0.3-2.6-0.5-3.9-0.5C155.8,0,121.4,0,87,0c-5.4,0-10.7,0-16.1,0c0-0.1-0.1-0.2-0.1-0.2c-0.1-0.1-0.1-0.2-0.2-0.3
		c-0.2-0.3-0.3-0.4-0.8-0.4c-3.9,0-17.6,0-21.6,0C47.6-0.9,47.4-0.9,47.1-0.5z M188.6,5.3c6,0,10.8,4.9,10.8,10.8v68.9
		c0,3-1.2,5.7-3.2,7.7c-2,2-4.7,3.2-7.7,3.2H16.3c-6,0-10.8-4.9-10.8-10.8v-8.2c0-0.8,0.5-1.6,1.2-2c0.3-0.2,0.7-0.3,1.1-0.3
		c1.1,0,2.1-0.4,2.9-1.1c0.6-0.5,1.1-1.1,1.4-1.8c0,0,0-0.1,0-0.1c0.1-0.3,0.2-0.5,0.2-0.8c0.1-0.3,0.1-0.6,0.1-0.9V31.3
		c0-2.6-2.1-4.7-4.7-4.7c-1.2,0-2.2-1-2.2-2.2v-8.2c0-2.6,0.9-5,2.5-6.9c2-2.4,5-3.9,8.4-3.9H188.6z"/>
	<g id="XMLID_80_">
		<path id="XMLID_90_" class="st1" d="M8.1,44.4v10.8c0,0.4-0.3,0.7-0.7,0.7l0,0c-0.4,0-0.7-0.3-0.7-0.7V44.4c0-0.4,0.3-0.7,0.7-0.7
			l0,0C7.7,43.6,8.1,44,8.1,44.4z"/>
		<path id="XMLID_89_" class="st1" d="M7.3,37.3c0.6,0,1.1,0.5,1.1,1.1c0,0.6-0.5,1.1-1.1,1.1S6.2,39,6.2,38.4
			C6.2,37.8,6.7,37.3,7.3,37.3z"/>
	</g>
</g>
</svg>
