
<!-- Generator: Element Pack Addon  -->
<svg version="1.1" id="Layer_1" xmlns="http://www.w3.org/2000/svg" xmlns:xlink="http://www.w3.org/1999/xlink" x="0px" y="0px"
	 viewBox="0 0 152.8 198.7" style="enable-background:new 0 0 152.8 198.7;" xml:space="preserve">
<style type="text/css">
	.st0{fill:#272727;}
	.st1{fill:#343434;}
</style>
<g>
	<path id="XMLID_423_" class="st0" d="M152.9,17.4c-0.1-0.1-0.2-0.1-0.4-0.1c-0.2-0.1-0.4-0.1-0.6-0.1c-0.3,0-0.6,0.2-0.6,0.8
		c0,0.4,0,0.8,0,1.2c0,2.5,0-0.3,0,2.2c0,0.3,0,2,0,2.4c0,0.6,0.3,0.8,0.6,0.8c0.2,0,0.4,0,0.6-0.1c0.1,0,0.3-0.1,0.4-0.1
		c0.3-0.2,0.5-0.2,0.5-0.6c0-3.1,0-2.2,0-5.3C153.4,17.8,153.3,17.6,152.9,17.4z"/>
	<path id="XMLID_422_" class="st0" d="M132.4-0.1c-0.1,0.1-0.1,0.2-0.2,0.4c-0.1,0.2-0.2,0.4-0.2,0.6c0,0.3,0.3,0.6,1.1,0.6
		c0.6,0,1.1,0,1.7,0c3.5,0-0.4,0,3,0c0.5,0,2.8,0,3.2,0c0.8,0,1.1-0.3,1.1-0.6c0-0.2-0.1-0.4-0.2-0.6c-0.1-0.1-0.1-0.3-0.2-0.4
		c-0.2-0.3-0.3-0.5-0.9-0.5c-4.3,0-3.1,0-7.3,0C133-0.5,132.7-0.5,132.4-0.1z"/>
	<path id="XMLID_421_" class="st0" d="M152.9,27.3c-0.1-0.1-0.2-0.1-0.4-0.1c-0.2-0.1-0.4-0.1-0.6-0.1c-0.3,0-0.6,0.2-0.6,0.8
		c0,0.4,0,0.8,0,1.2c0,2.5,0-0.3,0,2.2c0,0.3,0,2,0,2.4c0,0.6,0.3,0.8,0.6,0.8c0.2,0,0.4,0,0.6-0.1c0.1,0,0.3-0.1,0.4-0.1
		c0.3-0.2,0.5-0.2,0.5-0.6c0-3.1,0-2.2,0-5.3C153.4,27.7,153.3,27.5,152.9,27.3z"/>
	<path class="st1" d="M152.7,10c0-0.2,0-0.5-0.1-0.8c0-0.3-0.1-0.7-0.2-1.1c-0.2-0.8-0.5-1.6-1-2.5c-0.5-0.9-1.1-1.7-1.9-2.5
		c-0.8-0.7-1.6-1.4-2.5-1.8c-0.9-0.4-1.7-0.8-2.5-1c-0.4-0.1-0.7-0.2-1.1-0.2C143.3,0.1,143,0,142.8,0c-0.5,0-0.7,0-0.7,0H10.8
		c0,0-0.3,0-0.7,0c-0.2,0-0.5,0-0.8,0.1c-0.3,0-0.7,0.1-1.1,0.2c-0.8,0.2-1.6,0.5-2.5,1C4.8,1.8,3.9,2.4,3.2,3.1
		C2.4,3.9,1.8,4.8,1.3,5.6c-0.4,0.9-0.8,1.7-1,2.5C0.2,8.5,0.2,8.9,0.1,9.2C0.1,9.5,0,9.8,0,10c0,0.5,0,0.7,0,0.7v177.2
		c0,0,0,0.3,0,0.7c0,0.2,0,0.5,0.1,0.8c0,0.3,0.1,0.7,0.2,1.1c0.2,0.8,0.5,1.6,1,2.5c0.5,0.9,1.1,1.7,1.9,2.5
		c0.8,0.7,1.6,1.4,2.5,1.8c0.9,0.4,1.7,0.8,2.5,1c0.4,0.1,0.7,0.2,1.1,0.2c0.3,0,0.6,0.1,0.8,0.1c0.5,0,0.7,0,0.7,0h0
		c0,0,43.7,0,131.2,0c2.8,0,5.2-1.1,6.8-2.4c1.6-1.4,2.6-2.9,3.1-4.2c0.5-1.3,0.7-2.4,0.8-3.1c0-0.7,0.1-1.1,0.1-1.1V10.7
		C152.8,10.7,152.8,10.5,152.7,10z M145.7,189.2c0,1.3-1.1,2.4-2.4,2.4H9.5c-1.3,0-2.4-1.1-2.4-2.4V9.5c0-1.3,1.1-2.4,2.4-2.4h133.8
		c1.3,0,2.4,1.1,2.4,2.4V189.2z"/>
	<path id="XMLID_416_" class="st0" d="M77.8,3.7c0,0.8-0.6,1.4-1.4,1.4c-0.8,0-1.4-0.6-1.4-1.4c0-0.8,0.6-1.4,1.4-1.4
		C77.2,2.3,77.8,3,77.8,3.7z"/>
</g>
</svg>
