<svg id="Layer_1" data-name="Layer 1" xmlns="http://www.w3.org/2000/svg" xmlns:xlink="http://www.w3.org/1999/xlink" viewBox="0 0 500 500.01">
  <defs>
    <style>
      .cls-1 {
        fill: url(#linear-gradient);
      }

      .cls-2 {
        fill: #fff;
        opacity: 0.15;
      }

      .cls-3 {
        fill: #fdfdfe;
      }
    </style>
    <linearGradient id="linear-gradient" x1="435.67" y1="452.33" x2="91.16" y2="76.08" gradientUnits="userSpaceOnUse">
      <stop offset="0" stop-color="#005ae0"/>
      <stop offset="0.37" stop-color="#0069e3"/>
      <stop offset="1" stop-color="#008be9"/>
    </linearGradient>
  </defs>
  <title>AIOSEO icon SVG</title>
  <g>
    <path class="cls-1" d="M504.51,278q-.87,23-3.44,46t-6.77,46c0,.22-.08.47-.13.71A154.14,154.14,0,0,1,370.74,494.4a633.26,633.26,0,0,1-231.58-.23A154,154,0,0,1,15.52,370.74c0-.24-.09-.49-.12-.71q-4.23-23-6.72-46T5.34,278C5,268.5,4.89,259,5,249.5c0-5.85.19-11.71.42-17.55q.87-23,3.43-46,2-18,5-36.13c.14-.9.31-1.8.46-2.71.42-2.39.84-4.78,1.28-7.18,0-.25.08-.47.13-.72a154,154,0,0,1,16-45.31,151.77,151.77,0,0,1,17.65-26,153.72,153.72,0,0,1,89.79-52.36,632.82,632.82,0,0,1,231.58.21A154.55,154.55,0,0,1,478.38,93.87a153.22,153.22,0,0,1,16,45.32c.05.24.09.47.13.71q.6,3.25,1.15,6.51c.16.93.33,1.86.47,2.79q3.11,18.31,5.09,36.72,2.53,23,3.33,46,.29,8.45.38,16.9Q505,263.4,504.51,278Z" transform="translate(-4.96 -4.95)"/>
    <path class="cls-2" d="M496.14,149.2a457.83,457.83,0,0,1-241.61,68.48A457.89,457.89,0,0,1,13.88,149.79c.14-.9.31-1.8.46-2.71.42-2.39.84-4.78,1.28-7.18,0-.25.08-.47.13-.72a154,154,0,0,1,16-45.31,151.77,151.77,0,0,1,17.65-26,153.72,153.72,0,0,1,89.79-52.36,632.82,632.82,0,0,1,231.58.21A154.55,154.55,0,0,1,478.38,93.87a153.22,153.22,0,0,1,16,45.32c.05.24.09.47.13.71q.6,3.25,1.15,6.51C495.83,147.34,496,148.27,496.14,149.2Z" transform="translate(-4.96 -4.95)"/>
    <path class="cls-3" d="M316.44,263.53c0-6.29,0-12.57,0-18.86,0-4.74-1.52-6.15-6.35-6.2-3.8,0-7.61-.18-11.4.06-2.78.17-3.44-.84-3.4-3.48.14-10.08.11-20.17,0-30.26,0-5.56-3.05-9.1-7.74-9.4-5.23-.32-8.9,3.23-8.95,9-.1,10.08-.16,20.17,0,30.26.06,3.11-.85,3.91-3.91,3.87q-18.63-.25-37.28,0c-2.93,0-3.66-.87-3.62-3.69.17-9.79.09-19.59.06-29.38,0-6.37-3.19-10.1-8.42-10.09s-8.29,3.68-8.31,10.13c0,9.8-.11,19.59.06,29.38.05,2.92-.84,3.8-3.69,3.64-4.08-.22-8.19-.05-12.28-.05-2.88,0-5.16,1.33-5.08,4.25.43,16.76-2.26,33.73,1.76,50.23,5.32,21.91,19.06,36.71,40.56,43.89,3.07,1,4,2.34,3.93,5.48-.21,9.35-.12,18.71-.06,28.06a23.18,23.18,0,0,1-8.56,18.86c-5.26,4.42-10.31,9.07-16.34,12.48-5.15,2.92-10.32,3.69-15.87,1.09-4.49-2.1-9.19-3.76-13.63-5.93-5.67-2.78-8.08-7.92-6.94-14.17q1.65-9,3.48-18c1.25-6.12-.22-11.29-5.07-15.35a122.31,122.31,0,0,1-16.58-16.86c-4-5-9.14-6.42-15.27-5.1-5.7,1.23-11.42,2.38-17.14,3.52-6.3,1.25-11.23-1.08-14.14-6.81a118.29,118.29,0,0,1-7-17c-2-6.17-.45-11.22,4.82-15.05,5-3.59,10.06-7,15.18-10.41,5.61-3.72,7.6-8.87,6.84-15.44a100.75,100.75,0,0,1-.06-21.89c.71-6.79-1.51-11.94-7.32-15.65-4.8-3.07-9.49-6.31-14.15-9.57-5.89-4.13-7.68-9.3-5.26-16,2-5.48,4.12-10.92,6.54-16.22,2.62-5.74,7.35-8.19,13.55-7.16,5.75.95,11.47,2.13,17.16,3.38,6.61,1.45,12.08,0,16.38-5.49a118.25,118.25,0,0,1,15.89-16.3c4.65-4,6.76-8.91,5.22-15.21-1.3-5.38-2.08-10.88-3.2-16.31-1.76-8.56.48-13.45,8.26-17.06,4.76-2.2,9.6-4.26,14.52-6.07,6.09-2.24,11.27-.56,15,4.75,3.58,5.15,7,10.44,10.37,15.72,3.54,5.52,8.54,7.67,15,6.87a92.48,92.48,0,0,1,21.87,0c6.06.68,10.88-1.38,14.26-6.56,3.27-5,6.49-10.06,9.81-15.05,4.36-6.55,9.24-8.28,16.48-5.57,5.05,1.89,10.05,4,14.91,6.27,6.25,3,8.65,7.93,7.43,14.69-1.06,5.88-2.14,11.76-3.37,17.61-1.33,6.31.24,11.52,5.23,15.7a122.86,122.86,0,0,1,16.27,16.54c4,4.82,8.85,6.8,15.16,5.23,5.65-1.41,11.4-2.43,17.12-3.56,6.45-1.29,11.56,1.17,14.5,7.05a125.83,125.83,0,0,1,6.79,16.59c2.1,6.36.52,11.45-4.94,15.4-5,3.59-10.07,7-15.18,10.41-5.29,3.52-7.39,8.43-6.71,14.65a110.28,110.28,0,0,1,.08,22.76c-.65,6.61,1.54,11.66,7.19,15.29,4.8,3.08,9.49,6.31,14.15,9.59,6.24,4.4,7.9,9.55,5.27,16.8-1.74,4.79-3.69,9.52-5.77,14.17-3.44,7.68-8.28,10-16.61,8.23-5.56-1.16-11.17-2.11-16.72-3.35a12.57,12.57,0,0,0-13,4.34A196.3,196.3,0,0,1,329.89,350a13.1,13.1,0,0,0-4.25,13.48c1.34,5.83,2.33,11.73,3.49,17.6,1.57,7.86-.85,12.83-8.23,16.32-4.08,1.93-8.36,3.46-12.44,5.39-5.24,2.49-10.14,1.76-15-.91-7.53-4.09-14-9.58-20.06-15.49-4.07-3.95-5.72-9.13-5.78-14.72-.1-9.94.07-19.88-.11-29.82,0-2.68,1.15-3.44,3.39-4a61,61,0,0,0,45.56-58.44c.06-5.27,0-10.53,0-15.79Z" transform="translate(-4.96 -4.95)"/>
  </g>
</svg>
