<svg id="Layer_1" data-name="Layer 1" xmlns="http://www.w3.org/2000/svg" xmlns:xlink="http://www.w3.org/1999/xlink" viewBox="0 0 500 500.01">
  <defs>
    <style>
      .cls-1 {
        fill: url(#linear-gradient);
      }

      .cls-2, .cls-3 {
        fill: #fff;
      }

      .cls-2 {
        opacity: 0.15;
      }
    </style>
    <linearGradient id="linear-gradient" x1="58.02" y1="31.33" x2="448.48" y2="474.73" gradientUnits="userSpaceOnUse">
      <stop offset="0" stop-color="#d199a6"/>
      <stop offset="0.22" stop-color="#c290a6"/>
      <stop offset="0.65" stop-color="#9c79a8"/>
      <stop offset="1" stop-color="#7864a9"/>
    </linearGradient>
  </defs>
  <title>RankMath Icon svg</title>
  <g>
    <path class="cls-1" d="M504.51,278q-.87,23-3.44,46t-6.77,46c0,.22-.08.47-.13.71A154.14,154.14,0,0,1,370.74,494.4a633.26,633.26,0,0,1-231.58-.23A154,154,0,0,1,15.52,370.74c0-.24-.09-.49-.12-.71q-4.23-23-6.72-46T5.34,278C5,268.5,4.89,259,5,249.5c0-5.85.19-11.71.42-17.55q.87-23,3.43-46,2-18,5-36.13c.14-.9.31-1.8.46-2.71.42-2.39.84-4.78,1.28-7.18,0-.25.08-.47.13-.72a154,154,0,0,1,16-45.31,151.77,151.77,0,0,1,17.65-26,153.72,153.72,0,0,1,89.79-52.36,632.82,632.82,0,0,1,231.58.21A154.55,154.55,0,0,1,478.38,93.87a153.22,153.22,0,0,1,16,45.32c.05.24.09.47.13.71q.6,3.25,1.15,6.51c.16.93.33,1.86.47,2.79q3.11,18.31,5.09,36.72,2.53,23,3.33,46,.29,8.45.38,16.9Q505,263.4,504.51,278Z" transform="translate(-4.96 -4.95)"/>
    <path class="cls-2" d="M496.14,149.2a457.83,457.83,0,0,1-241.61,68.48A457.89,457.89,0,0,1,13.88,149.79c.14-.9.31-1.8.46-2.71.42-2.39.84-4.78,1.28-7.18,0-.25.08-.47.13-.72a154,154,0,0,1,16-45.31,151.77,151.77,0,0,1,17.65-26,153.72,153.72,0,0,1,89.79-52.36,632.82,632.82,0,0,1,231.58.21A154.55,154.55,0,0,1,478.38,93.87a153.22,153.22,0,0,1,16,45.32c.05.24.09.47.13.71q.6,3.25,1.15,6.51C495.83,147.34,496,148.27,496.14,149.2Z" transform="translate(-4.96 -4.95)"/>
    <g>
      <path class="cls-3" d="M359.12,135.11a3.59,3.59,0,0,1,3.58,3.58q0,69.44.07,138.86a5.12,5.12,0,0,1-2.8,4.93q-33.21,21.09-66.26,42.43c-2.76,1.79-4.68.8-7-.16s-1.55-3.07-1.55-4.73q-.06-90.63,0-181.25v0a3.6,3.6,0,0,1,3.58-3.62Z" transform="translate(-4.96 -4.95)"/>
      <path class="cls-3" d="M72.57,343.18q35.64-14.78,71.27-29.56c14.29-5.94,28.59-11.88,42.84-17.94a7.69,7.69,0,0,1,6.56.08q47.14,20,94.36,39.75c2,.82,3.54,1.33,5.7-.06q48.17-31,96.5-61.72c2.47-1.58,2.71-2.59,1-4.93-2.71-3.74-5-7.8-7.54-11.67-1-1.52-1.13-2.32,1.08-2.42,19.37-.8,38.75-1.65,58.9-2.52-9.51,18.37-18.77,36.24-28.24,54.52-3.19-5-6.29-9.47-9-14.19-1.41-2.44-2.44-2.39-4.69-.95q-52.18,33.56-104.44,67c-2.73,1.76-4.87,2-7.93.75-32.09-13.62-64.27-27.07-96.4-40.6-1.62-.68-3-1.07-4.79-.31q-52,21.76-103.95,43.41c-.62.26-1.48.3-1.7,1.18H80.63c-2.81-6.06-4.73-12.5-8.06-18.32Z" transform="translate(-4.96 -4.95)"/>
      <path class="cls-3" d="M277.89,254.91c0,20.75,0,41.5.05,62.25,0,3-.41,3.84-3.57,2.5q-35.68-15.18-71.48-30.06c-2-.85-2.64-2-2.64-4.11q.09-46.86,0-93.73c0-2.49.62-3.34,3.24-3.33q35.52.15,71,0c2.81,0,3.44.85,3.43,3.52C277.84,212.93,277.89,233.92,277.89,254.91Z" transform="translate(-4.96 -4.95)"/>
      <path class="cls-3" d="M193,285.24c-2.46-1.46-4.75-.53-7.19.49-22.35,9.39-44.75,18.66-67.1,28.08-2.68,1.13-3,.3-3-2.14q.09-33.48,0-67c0-2.68.91-3.21,3.36-3.2q35.49.12,71,0c2.68,0,3.56.63,3.52,3.44-.16,12.44-.06,24.88-.08,37.32C193.53,283.21,193.78,284.21,193,285.24Z" transform="translate(-4.96 -4.95)"/>
    </g>
  </g>
</svg>
