<svg id="Layer_1" data-name="Layer 1" xmlns="http://www.w3.org/2000/svg" xmlns:xlink="http://www.w3.org/1999/xlink" viewBox="0 0 500 500.01">
  <defs>
    <style>
      .cls-1 {
        fill: url(#linear-gradient);
      }

      .cls-2, .cls-3 {
        fill: #fff;
      }

      .cls-2 {
        opacity: 0.15;
      }
    </style>
    <linearGradient id="linear-gradient" x1="55.98" y1="29.29" x2="446.44" y2="472.68" gradientUnits="userSpaceOnUse">
      <stop offset="0" stop-color="#1e9904"/>
      <stop offset="0.14" stop-color="#229a05"/>
      <stop offset="0.28" stop-color="#2e9d07"/>
      <stop offset="0.42" stop-color="#41a30c"/>
      <stop offset="0.55" stop-color="#5daa12"/>
      <stop offset="0.69" stop-color="#80b419"/>
      <stop offset="0.82" stop-color="#abc023"/>
      <stop offset="0.96" stop-color="#dece2e"/>
      <stop offset="1" stop-color="#f0d332"/>
    </linearGradient>
  </defs>
  <title>squirrly icon svg</title>
  <g>
    <path class="cls-1" d="M502.46,275.94q-.85,23-3.43,46t-6.77,46c0,.23-.08.48-.13.72A154.2,154.2,0,0,1,368.69,492.36a633.2,633.2,0,0,1-231.57-.23A154.32,154.32,0,0,1,67.71,460,153.67,153.67,0,0,1,13.47,368.7c0-.24-.08-.49-.12-.72q-4.22-23-6.71-46t-3.34-46Q2.79,261.71,3,247.46q.09-8.79.42-17.55.88-23,3.44-46,2-18,5-36.13c.14-.91.3-1.8.46-2.71.42-2.4.84-4.78,1.28-7.18,0-.25.08-.48.13-.72a154.52,154.52,0,0,1,8.22-28.67,156.31,156.31,0,0,1,7.74-16.64A154,154,0,0,1,137.12,13.49a632.76,632.76,0,0,1,231.57.21A154.67,154.67,0,0,1,476.34,91.83a152.91,152.91,0,0,1,16,45.32,5.55,5.55,0,0,1,.13.71q.6,3.25,1.16,6.51c.16.93.32,1.86.46,2.79q3.12,18.32,5.1,36.72,2.54,23,3.33,46,.28,8.43.38,16.9Q503,261.36,502.46,275.94Z" transform="translate(-2.91 -2.91)"/>
    <path class="cls-2" d="M494.09,147.16a457.86,457.86,0,0,1-241.6,68.48A457.87,457.87,0,0,1,11.84,147.75c.14-.91.3-1.8.46-2.71.42-2.4.84-4.78,1.28-7.18,0-.25.08-.48.13-.72a154.52,154.52,0,0,1,8.22-28.67,156.31,156.31,0,0,1,7.74-16.64A154,154,0,0,1,137.12,13.49a632.76,632.76,0,0,1,231.57.21A154.67,154.67,0,0,1,476.34,91.83a152.91,152.91,0,0,1,16,45.32,5.55,5.55,0,0,1,.13.71q.6,3.25,1.16,6.51C493.79,145.3,494,146.23,494.09,147.16Z" transform="translate(-2.91 -2.91)"/>
    <g>
      <path class="cls-3" d="M283,398.58a32.06,32.06,0,0,1-4.26-.3c-4.71-.63-7.89-2.15-10-4.78a5,5,0,0,0-4-2.09,8.13,8.13,0,0,0-1.58.18,87.44,87.44,0,0,1-16.92,1.64,101.27,101.27,0,0,1-23-2.77,6.73,6.73,0,0,0-1.46-.19,4.61,4.61,0,0,0-3.67,2c-2,2.54-4.85,4-9.32,4.84a27.73,27.73,0,0,1-5.1.49,21.17,21.17,0,0,1-11.14-3,9.79,9.79,0,0,1-2.56-2.24,5.82,5.82,0,0,1,.37-8.25,14.12,14.12,0,0,1,3.77-2.72l1.44-.76-.62-1.51a3.74,3.74,0,0,0-1.6-1.75l-.23-.15a94.65,94.65,0,0,1-9.38-7.45,4,4,0,0,0-2.73-1.16,4,4,0,0,0-1.81.45c-.91.42-1.9.88-2.86,1.35a4.77,4.77,0,0,1-.79.3,6.75,6.75,0,0,1-.07-.89,15.18,15.18,0,0,1,.15-1.88c.07-.7.17-1.32.29-2.09l.74-4.95L172.88,364c-.43.35-.83.7-1.22,1-.66.59-1.3,1.14-2,1.64a3.51,3.51,0,0,1-.41.27,4.09,4.09,0,0,1-.1-.6,17.85,17.85,0,0,1,.21-4.27l.08-.66.21-.68a2.42,2.42,0,0,0-.58-3.4l-.47-.33-.63,0a2.26,2.26,0,0,0-2.11,2.06c0,.13-.09.26-.14.39s-.34.53-.51.8a9.15,9.15,0,0,1-1.08,1.51l-.06.06,0-.09a6.73,6.73,0,0,1-.24-3.15c.07-.73.16-1.45.26-2.16l.12-1a3.3,3.3,0,0,0,.32-1.15,3.49,3.49,0,0,0,.32-1.23,3.06,3.06,0,0,0,0-2.6l-.79-1.68-1.65.84a2.59,2.59,0,0,0-1.34,1.73l-.15.47c-.08.24-.15.49-.23.73a3.25,3.25,0,0,1-.11.37l-.12.36-.38.83a21.66,21.66,0,0,1-2.53,4.52,5.06,5.06,0,0,1-.92,1,1,1,0,0,1-.45.23.78.78,0,0,1-.15-.47,5.81,5.81,0,0,1,.46-2.45,47.28,47.28,0,0,1,5.57-9.72l.37-.54c3.26-4.72,7.63-8.38,11.82-11.71l.22-.17a3.51,3.51,0,0,0,1.67-3.53c-1.25-9.26.94-18,6.7-26.81a11.07,11.07,0,0,0,1.69-4.43c1.06-6.67,2.38-13.71,5.7-20.09,1.78-3.37,3.62-6.87,6.51-9.45a5,5,0,0,1,3.41-1.44,5.94,5.94,0,0,1,1.7.27c4.45,1.37,8.34,3.8,12.59,6.6a16.11,16.11,0,0,1,1.42,1.08,10.45,10.45,0,0,0,3.78,2.25,4.92,4.92,0,0,0,1.36.18,10.55,10.55,0,0,0,3.29-.69,13.06,13.06,0,0,1,1.61-.46,102.38,102.38,0,0,1,18.53-1.74,95.11,95.11,0,0,1,30.73,5.12,67.73,67.73,0,0,1,17.34,9.31,4.9,4.9,0,0,0,2.92,1.06,5.18,5.18,0,0,0,1.75-.33,77.94,77.94,0,0,1,8.7-2.49,10.21,10.21,0,0,1,2.29-.28c3.21,0,5,1.94,5.32,5.76a42.31,42.31,0,0,1-1.84,16.61,8.57,8.57,0,0,0,0,5.57c2.47,7.78,2,15.94-1.42,24.22a3.1,3.1,0,0,0,1,4c6.3,4.87,10.58,11.32,15.13,18.64a8.11,8.11,0,0,1,1.16,3.07c0,.11,0,.19,0,.25l-.21,0a8.06,8.06,0,0,1-3.69-2.62l-.47-.72a4,4,0,0,0-1.11-1.32,2.44,2.44,0,0,0-2.06-1.87l-2.11-.38v2.15a2.54,2.54,0,0,0,1,2.16,70.52,70.52,0,0,0,1.46,2.69l.23.58c.25.66.51,1.32.71,2,0,.15.06.26.07.36l-.37-.21a21.67,21.67,0,0,1-4.53-3.6l0,0a2.16,2.16,0,0,0-1.85-1.17h-.93l-.54.69a2.54,2.54,0,0,0-.17,3.13,22.22,22.22,0,0,1,.56,5.77c0,.13,0,.35-.07.53l-.46-.32a14.69,14.69,0,0,1-2.11-1.91c-.27-.28-.54-.56-.82-.83l-.92-.89-1.15.57a2.61,2.61,0,0,0-1.43,2.3,19.29,19.29,0,0,1-.83,3.41,10.18,10.18,0,0,1-.56,1.35,8.53,8.53,0,0,1-1.26-.63,4.48,4.48,0,0,0-2.19-.62,4.05,4.05,0,0,0-2.67,1.06c-1,.84-2,1.66-3.06,2.35a2.41,2.41,0,0,0-1.15,1.93,2.35,2.35,0,0,0,1,1.89,6.11,6.11,0,0,1-.74,9.94A19.43,19.43,0,0,1,283,398.58Z" transform="translate(-2.91 -2.91)"/>
      <path class="cls-3" d="M324.87,330.19A44.54,44.54,0,0,0,323.1,314a53.64,53.64,0,0,0,2.22-12.61s0-.49,0-.62a54.94,54.94,0,0,0-.14-7.09c-.63-7.33-4.36-12.84-10.16-15.25.47-.57.94-1.17,1.4-1.79a4.23,4.23,0,0,0,.52-.7,81.18,81.18,0,0,0,13.59-27.27,2.91,2.91,0,0,0,.23-.8,81.58,81.58,0,0,0,3-23.35,3.36,3.36,0,0,0,0-.71,82.07,82.07,0,0,0-4.92-26.55,3.23,3.23,0,0,0-.24-.7,82.5,82.5,0,0,0-16.79-27.43,68,68,0,0,0-96-4,54.79,54.79,0,0,0-17.13,31.72,4.33,4.33,0,0,0-.12.72,51,51,0,0,0-.6,6.1,55.62,55.62,0,0,0,2.95,20.4c.07.21.13.39.19.55a55.55,55.55,0,0,0,11.45,18.95,43.69,43.69,0,0,0,5.95,5.41l.66.5a45.71,45.71,0,0,0,53.9,0,6.92,6.92,0,0,0,.74-.55c1-.71,2.06-1.64,3.19-2.67a37.72,37.72,0,0,0,11.7-22,5.32,5.32,0,0,0,.06-.56,37.34,37.34,0,0,0-6.63-27c-.1-.15-.24-.36-.38-.54a33.68,33.68,0,0,0-2.57-3.09,31.34,31.34,0,0,0-44.19-1.8,25.56,25.56,0,0,0-4.29,5.1,5.52,5.52,0,0,0-.39.64,26.07,26.07,0,0,0,.52,27.9,4.9,4.9,0,0,0,.45.67l.1.12a23.22,23.22,0,0,0,2.06,2.59,21.93,21.93,0,0,0,15.38,7.14l.91,0a22.17,22.17,0,0,0,15-5.84,18.48,18.48,0,0,0,3.72-4.75,3,3,0,0,0,.32-.63,18.14,18.14,0,0,0,2.05-7.74,18.68,18.68,0,0,0-5-13.58,16.11,16.11,0,0,0-11.29-5.25H254a16.43,16.43,0,0,0-11.12,4.28l-1.34,1.23,8,8.67,1.33-1.24a4.5,4.5,0,0,1,6.36.28,7.13,7.13,0,0,1-.4,10.08,10.35,10.35,0,0,1-2,1.45,4.4,4.4,0,0,1-.75.38,10.15,10.15,0,0,1-4.23.9h-.46a9.89,9.89,0,0,1-3.74-.88,9,9,0,0,1-.82-.4,9.68,9.68,0,0,1-2.62-2.06,14.4,14.4,0,0,1,.83-20.41c.48-.43.94-.85,1.43-1.22.18-.13.36-.24.53-.35a19.53,19.53,0,0,1,22.5,0c.14.1.29.2.42.31a19.1,19.1,0,0,1,2.71,2.44,25.61,25.61,0,0,1,6.4,22.16l0,.17v0l-.05.21a25.67,25.67,0,0,1-7.84,14,33.25,33.25,0,0,1-18.5,8.63,34.67,34.67,0,0,1-4.4.28,30.88,30.88,0,0,1-4.23-.28,33.78,33.78,0,0,1-20.67-10.62,43.31,43.31,0,0,1-7.82-11.94l0-.1-.06-.1-.09-.25a43.06,43.06,0,0,1-3.51-19.06,41.86,41.86,0,0,1,.68-6.1l.08-.51a43.42,43.42,0,0,1,13.32-23.77,56.25,56.25,0,0,1,79.37,3.29,68.68,68.68,0,0,1,13.18,20.82,3.07,3.07,0,0,1,.15.37,72.32,72.32,0,0,1,5.18,25.26v.13l0,.16V224a74.49,74.49,0,0,1-3.07,23l0,.11,0,.11c0,.06,0,.13-.06.2a72.46,72.46,0,0,1-14.32,26.4l-.07.08-.06.09a1.46,1.46,0,0,1-.16.19,57.13,57.13,0,0,1-4.08,4.32c-1.09.3-2.16.61-3.2.92a85.13,85.13,0,0,0-9.62-5.61l-.77-.37-.21-.09a64.09,64.09,0,0,0-7.06-2.92,107.14,107.14,0,0,0-34.52-5.74,113.36,113.36,0,0,0-20.7,1.93c-.54.11-1.05.23-1.49.36-.5-.38-.95-.7-1.39-1-5-3.31-9.67-6.21-15.57-8a18.1,18.1,0,0,0-5.14-.79,16.7,16.7,0,0,0-11.28,4.46c-4.52,4.07-7.06,8.95-8.92,12.51l-.1.17,0,0-.12.24c-4,7.79-5.55,15.85-6.77,23.44-.39.6-.76,1.18-1.13,1.79a3.73,3.73,0,0,1-.25.41,52.75,52.75,0,0,0-6.63,17,126.6,126.6,0,0,1-15-17,.61.61,0,0,0-.09-.26l-.08-.15-.1-.14a101.45,101.45,0,0,1-9.95-16.17,66.13,66.13,0,0,1-4.05-9.1l0-.08,0-.09a95,95,0,0,1-5.3-16.14,70.18,70.18,0,0,1-2-10.24l0-.19a93.29,93.29,0,0,1-1.4-14.09,51.72,51.72,0,0,1,0-6.7v-.18a83.94,83.94,0,0,1,.88-12.07,111.09,111.09,0,0,1,3.47-17.18,119.44,119.44,0,0,1,8.38-21.69,120.66,120.66,0,0,1,12.44-19.61,127.25,127.25,0,0,1,95.34-48.8c1.88-.07,3.74-.11,5.61-.11a125.67,125.67,0,0,1,67.25,19c26.63,16.5,44.75,40,53.86,69.73.11.32.18.63.26.94l.13.53a116.4,116.4,0,0,1,4.26,25.68c0,.42.06.85.1,1.28a8.33,8.33,0,0,1,.05,2.1l0,.17v.16a102.2,102.2,0,0,1-1.38,20.92,89,89,0,0,1-3,14.1,82.6,82.6,0,0,1-4.31,12.42,94.75,94.75,0,0,1-7,14.55,78.64,78.64,0,0,1-7.06,10.87,91.46,91.46,0,0,1-8.89,11.08A124.38,124.38,0,0,1,324.87,330.19Z" transform="translate(-2.91 -2.91)"/>
    </g>
  </g>
</svg>
