<svg id="Layer_1" data-name="Layer 1" xmlns="http://www.w3.org/2000/svg" viewBox="0 0 566.9 566.9"><defs><linearGradient id="linear-gradient" x1="382.2" y1="625.9" x2="188.9" y2="-44.3" gradientUnits="userSpaceOnUse"><stop offset="0" stop-color="#ee488d"/><stop offset="1" stop-color="#fbac49"/></linearGradient><style>.cls-3{fill:#fff}</style></defs><path d="M566.4 309.6q-1 26-3.9 52.1t-7.7 52.2a8 8 0 01-.1.8 174.8 174.8 0 01-140 140.3 718.2 718.2 0 01-262.5-.3A174.7 174.7 0 0112 414.8l-.1-.8Q7 388 4.2 361.7T.4 309.6Q0 293.4 0 277.3q.1-10 .5-20 1-26 4-52.1 2.2-20.5 5.6-41l.5-3 1.5-8.2.1-.9a175 175 0 0118.1-51.3A174.6 174.6 0 01152.2 12a717.6 717.6 0 01262.5.3A174.9 174.9 0 01520 75.5a173.4 173.4 0 0134.9 76.7l.1.8 1.4 7.4.5 3.1q3.5 20.8 5.8 41.7 2.8 26 3.7 52.2.4 9.6.5 19.1.1 16.5-.5 33z" fill="url(#linear-gradient)"/><path d="M557 163.6a519.1 519.1 0 01-274 77.6 519.2 519.2 0 01-272.9-77l.6-3L12 153l.2-.8a175 175 0 0118-51.4A174.6 174.6 0 01152.3 12a717.6 717.6 0 01262.5.3A174.9 174.9 0 01520 75.5a173.4 173.4 0 0134.9 76.7l.1.8 1.4 7.4.5 3.2z" opacity=".1" fill="#fff"/><path class="cls-3" d="M418.4 401.8V418a6 6 0 01-6 6H177a6 6 0 01-6-6v-16.2a6 6 0 016-6h235.6a6 6 0 016 6zM231.2 325.6a14 14 0 01-28 0 14 14 0 014-10 14 14 0 0124 10zM143.3 157a14 14 0 01-14.1 14 14 14 0 01-14-14 14 14 0 0128.1 0zM143.3 409.9a14 14 0 11-4.2-10 14 14 0 014.2 10zM451.8 317.5v16.2a6 6 0 01-6 6h-181a6 6 0 01-6-6v-16.2a6 6 0 016-6h181a6 6 0 016 6z"/><rect class="cls-3" x="258.9" y="227.3" width="126.2" height="28.1" rx="6"/><path class="cls-3" d="M231.2 241.3a14 14 0 01-28 0 14 14 0 1128 0zM451.8 149V165a6 6 0 01-6 6h-269a6 6 0 01-5.9-6v-16.2a6 6 0 016-6h269a6 6 0 015.9 6z"/></svg>