<svg id="Layer_1" data-name="Layer 1" xmlns="http://www.w3.org/2000/svg" xmlns:xlink="http://www.w3.org/1999/xlink" viewBox="0 0 500 500.01">
  <defs>
    <style>
      .cls-1 {
        fill: url(#linear-gradient);
      }

      .cls-2, .cls-3 {
        fill: #fff;
      }

      .cls-2 {
        opacity: 0.15;
      }
    </style>
    <linearGradient id="linear-gradient" x1="58.02" y1="31.33" x2="448.48" y2="474.73" gradientUnits="userSpaceOnUse">
      <stop offset="0" stop-color="#a4286a"/>
      <stop offset="0.31" stop-color="#95296c"/>
      <stop offset="0.91" stop-color="#6f2c72"/>
      <stop offset="1" stop-color="#682d73"/>
    </linearGradient>
  </defs>
  <title>YOAST icon svg</title>
  <g>
    <path class="cls-1" d="M504.51,278q-.87,23-3.44,46t-6.77,46c0,.22-.08.47-.13.71A154.14,154.14,0,0,1,370.74,494.4a633.26,633.26,0,0,1-231.58-.23A154,154,0,0,1,15.52,370.74c0-.24-.09-.49-.12-.71q-4.23-23-6.72-46T5.34,278C5,268.5,4.89,259,5,249.5c0-5.85.19-11.71.42-17.55q.87-23,3.43-46,2-18,5-36.13c.14-.9.31-1.8.46-2.71.42-2.39.84-4.78,1.28-7.18,0-.25.08-.47.13-.72a154,154,0,0,1,16-45.31,151.77,151.77,0,0,1,17.65-26,153.72,153.72,0,0,1,89.79-52.36,632.82,632.82,0,0,1,231.58.21A154.55,154.55,0,0,1,478.38,93.87a153.22,153.22,0,0,1,16,45.32c.05.24.09.47.13.71q.6,3.25,1.15,6.51c.16.93.33,1.86.47,2.79q3.11,18.31,5.09,36.72,2.53,23,3.33,46,.29,8.45.38,16.9Q505,263.4,504.51,278Z" transform="translate(-4.96 -4.95)"/>
    <path class="cls-2" d="M496.14,149.2a457.83,457.83,0,0,1-241.61,68.48A457.89,457.89,0,0,1,13.88,149.79c.14-.9.31-1.8.46-2.71.42-2.39.84-4.78,1.28-7.18,0-.25.08-.47.13-.72a154,154,0,0,1,16-45.31,151.77,151.77,0,0,1,17.65-26,153.72,153.72,0,0,1,89.79-52.36,632.82,632.82,0,0,1,231.58.21A154.55,154.55,0,0,1,478.38,93.87a153.22,153.22,0,0,1,16,45.32c.05.24.09.47.13.71q.6,3.25,1.15,6.51C495.83,147.34,496,148.27,496.14,149.2Z" transform="translate(-4.96 -4.95)"/>
    <path class="cls-3" d="M354.51,109.84c-13.47,0-26.95,0-40.43,0-1.79,0-2.6.45-3.23,2.22q-28.44,79.32-57,158.59a3.57,3.57,0,0,1-.89,1.75l-.32-1Q246.8,253.11,241,234.84q-7.77-24.3-15.52-48.61a1.77,1.77,0,0,0-2-1.52c-12.88.06-25.77,0-38.66,0a2,2,0,0,0-1.42.22c.19.53.37,1.08.58,1.62q19.35,49.82,38.7,99.62c2.31,5.92,4.41,11.92,7,17.73a51.77,51.77,0,0,1,3.23,13.91,46.83,46.83,0,0,1-5.13,24c-3.58,7.34-8.56,13.44-15.87,17.38a46.71,46.71,0,0,1-15.4,5c-.76.11-1.65-.05-1.65,1.28q.06,16.77,0,33.52c0,.87.29,1.08,1.12,1.08A75.53,75.53,0,0,0,213.67,398c16.23-3.81,28.64-13.26,38.52-26.35,10.23-13.55,17.14-28.84,23.17-44.57,3-7.68,5.7-15.45,8.54-23.18,1.73-3.54,2.82-7.33,4.2-11Q322,202.34,355.75,111.72C356.45,109.84,356.45,109.84,354.51,109.84Z" transform="translate(-4.96 -4.95)"/>
  </g>
</svg>
