<svg data-name="Layer 1" xmlns="http://www.w3.org/2000/svg" viewBox="0 0 127 127"><path d="M119.2 0H7.8A7.8 7.8 0 000 7.8v111.4a7.8 7.8 0 007.8 7.8h111.4a7.8 7.8 0 007.8-7.8V7.8a7.8 7.8 0 00-7.8-7.8zm-99 104.4a4.2 4.2 0 111.3-3 4.2 4.2 0 01-1.3 3zm0-75.8a4.2 4.2 0 01-7.2-3 4.2 4.2 0 117.2 3zm83.8 75.2a1.8 1.8 0 01-1.8 1.8H31.5a1.8 1.8 0 01-1.7-1.8V99a1.8 1.8 0 011.7-1.8h70.7A1.8 1.8 0 01104 99zM40.6 73.2a4.2 4.2 0 11-1.2 3 4.2 4.2 0 011.3-3zm-1.2-22.3a4.2 4.2 0 018.4 0 4.2 4.2 0 01-8.4 0zM114 78.6a1.8 1.8 0 01-1.8 1.7H58a1.8 1.8 0 01-1.8-1.7v-4.9A1.8 1.8 0 0158 72h54.3a1.8 1.8 0 011.8 1.8zM56.1 53.3v-4.9a1.8 1.8 0 011.8-1.8h34.3a1.8 1.8 0 011.8 1.8v4.9a1.8 1.8 0 01-1.8 1.8H58a1.8 1.8 0 01-1.8-1.8zM114 28a1.8 1.8 0 01-1.8 1.8H31.5a1.8 1.8 0 01-1.7-1.8v-4.9a1.8 1.8 0 011.7-1.7h80.7a1.8 1.8 0 011.8 1.8z" fill="#037fff"/></svg>